<svg id="Layer_1" data-name="Layer 1" xmlns="http://www.w3.org/2000/svg" viewBox="0 0 720 720"><title>TMG-001-Brand-Logo-WT-FNL</title><path d="M110.5,80H62.55V51.55H191V80H143.09V199.92H110.5Z"/><path d="M207,43.36h31.15v64.75l.41.21a48.33,48.33,0,0,1,30.74-11.48c10.66,0,20.08,3.69,26.44,10.25,6.14,6.56,8.81,15.37,8.81,29.92v62.91H273.42V142.13c0-7.58-1-11.27-3.48-14.14-2.67-3.07-6.36-4.3-10.66-4.3-8,0-15.58,4.1-21.11,8.4v67.83H207Z"/><path d="M355.59,157.71c3.49,13.93,15,20.28,29.31,20.28,11.27,0,23.56-3.89,34.22-11.06v26c-9.84,6.15-25,9.23-38.32,9.23-33.2,0-57.17-20.7-57.17-52.26,0-32.17,25-53.08,52.87-53.08,24.79,0,48.15,16.4,48.15,50.21a83.24,83.24,0,0,1-.61,10.66ZM396,138c-1.84-10.86-9.83-17.42-19.87-17.42-9.64,0-18,6-20.7,17.42Z"/><path d="M126.08,309.56c-7.38-10.45-14.76-21.31-21.73-31.77l-.41.21c.21,10.66.41,24.59.41,36.89v59.42H73V226h31.35l44.06,62.71L192.47,226h30.95V374.31H190.83V314.89c0-12.3.21-26.23.41-36.89l-.41-.21c-7,10.46-14.34,21.32-21.72,31.77l-21.52,30.53Z"/><path d="M306.62,368.17c-6.56,4.71-16.6,8.4-28.08,8.4-8.6,0-16.8-2.05-23.36-6.56-7.38-5.12-11.88-13.11-11.88-23.57,0-11.06,5.12-19.46,12.29-24.38,7.79-5.33,17.83-7.17,28.28-7.17a81,81,0,0,1,17.42,1.84v-3.89c0-4.92-1.64-8.61-3.89-10.66-2.87-2.66-8.2-4.3-15.58-4.3-11.27,0-21.52,3.69-29.51,8V279a80.31,80.31,0,0,1,35.25-7.78c13.52,0,25.62,3.07,33.61,9.63,7.58,6.15,11.27,15.16,11.27,27.87V343c0,4.71,1.84,8,6.15,8a11.77,11.77,0,0,0,5.12-1.23v23.36c-3.49,1.85-9,3.08-15,3.08-8.2,0-16.19-2.26-21.72-8Zm-5.33-33.41a41.24,41.24,0,0,0-11.07-1.43c-8,0-16,2.46-16,10.25,0,6.55,5.74,10,12.91,10a28,28,0,0,0,14.14-4.1Z"/><path d="M359.9,217.75h31.15v98.37l.41.2,35.24-42.83h35.45l-38.52,45.08L465,374.31H428.14l-36.68-51.43-.41.2v51.23H359.9Z"/><path d="M496.38,332.1c3.48,13.93,15,20.29,29.3,20.29,11.27,0,23.57-3.9,34.23-11.07v26c-9.84,6.14-25,9.22-38.33,9.22-33.19,0-57.17-20.7-57.17-52.26,0-32.17,25-53.07,52.87-53.07,24.8,0,48.16,16.39,48.16,50.2a82.9,82.9,0,0,1-.62,10.66Zm40.37-19.67C534.9,301.57,526.91,295,516.87,295c-9.63,0-18,5.94-20.7,17.42Z"/><path d="M585.72,273.49h30.54V287l.41.2c7-9.84,16.8-15,29.3-15a25.18,25.18,0,0,1,6.56.82v29.31a36,36,0,0,0-8.4-1c-10.86,0-19.88,3.28-27.26,11.89v61.06H585.72Z"/><path d="M198,538.67C184.69,546,166,551,147.59,551c-47.54,0-80.94-32.17-80.94-75.82,0-43.85,33.81-77.05,81.15-77.05a94.83,94.83,0,0,1,45.49,11.27v32.79c-12.5-8.61-28.69-14.76-44.88-14.76-29.92,0-49.18,21.11-49.18,47.54,0,25.83,18.44,47.55,49,47.55a49.13,49.13,0,0,0,18.24-3.28V496.86H140.63V469.81H198Z"/><path d="M223.21,447.88h30.54v13.53l.41.2c7-9.83,16.8-15,29.3-15a25.23,25.23,0,0,1,6.56.82v29.31a36.07,36.07,0,0,0-8.41-1c-10.86,0-19.87,3.28-27.25,11.89v61.07H223.21Z"/><path d="M354.16,445.63c32.17,0,56.15,22.95,56.15,52.67S386.33,551,354.16,551,298,528,298,498.3,322,445.63,354.16,445.63Zm0,78.49c14.14,0,25-11.48,25-25.82s-10.86-25.82-25-25.82-25,11.47-25,25.82S340,524.12,354.16,524.12Z"/><path d="M496.38,539.08c-7.79,6.76-17.62,11.88-30.74,11.88-11.68,0-20.49-4.1-26.23-10-6.56-6.76-9.63-16-9.63-30.94v-62.1h31.15v57.38c0,7.38,1.23,11.68,3.89,14.55,2.66,3.08,6.76,4.51,11.07,4.51,7.78,0,15.57-4.3,20.49-9V447.88h31.15V548.71H496.79v-9.43Z"/><path d="M584.91,593.79H553.76V447.88h30.53V453l.41.2a43.58,43.58,0,0,1,25-7.58c25.82,0,47.75,20.49,47.75,51.85,0,32.37-23.16,53.48-52.67,53.48-8.19,0-14.75-1.64-19.46-3.89l-.41.2Zm16-68c16.19,0,25.21-11.69,25.21-26.64,0-15.17-9-27.46-24.39-27.46a28.92,28.92,0,0,0-16.8,5.53v44.67A35.25,35.25,0,0,0,600.89,525.76Z"/><path d="M71.43,630.72h7.63l-.64,3.43.13.06A16.09,16.09,0,0,1,88.71,630a9,9,0,0,1,8.58,5.4c3.68-3.37,7.81-5.4,12-5.4,5.72,0,9.53,3.74,9.53,9.4a22,22,0,0,1-.44,4.19L115.14,662h-7.69l3.18-17.85a17.63,17.63,0,0,0,.38-3c0-2.66-1.53-4.32-4.45-4.32s-5.78,1.59-8.57,4.07c-.07.76-.26,2.1-.38,2.73L94.37,662H86.68l3.18-17.85a15.55,15.55,0,0,0,.31-3c0-2.66-1.46-4.32-4.44-4.32s-5.72,1.59-8.39,3.94L73.59,662H65.91Z"/><path d="M152.49,662h-7.62l.44-2.48-.13-.06a12.5,12.5,0,0,1-8.38,3.24c-6.8,0-12.07-5.34-12.07-13.47a19.92,19.92,0,0,1,5.65-13.91A18.39,18.39,0,0,1,143.66,630a32,32,0,0,1,13.78,3.68Zm-3.43-24.08a14.38,14.38,0,0,0-6-1.39,9.44,9.44,0,0,0-7.55,3.49,13.46,13.46,0,0,0-3,8.51c0,5,2.86,7.75,6.67,7.75a10.66,10.66,0,0,0,7.24-3.37Z"/><path d="M170,613.44h7.69l-5.27,29.92h.12l15.06-12.64h9.46l-16.7,14L191.17,662h-8.76l-10.23-16.58h-.13L169.13,662h-7.68Z"/><path d="M202.16,630.72h7.69L204.32,662h-7.68Zm6-15.38a4.52,4.52,0,0,1,4.64,4.51,5,5,0,0,1-5.14,5,4.45,4.45,0,0,1-4.51-4.51A5,5,0,0,1,208.13,615.34Z"/><path d="M218.81,630.72h7.62l-.64,3.43.13.06c3.18-2.48,6.67-4.19,10.48-4.19,5.72,0,9.53,3.74,9.53,9.65a23,23,0,0,1-.44,4.07L242.25,662h-7.69l3.11-17.6a15.38,15.38,0,0,0,.32-3c0-2.66-1.27-4.51-4.38-4.51-2.93,0-6.1,1.72-8.9,3.94L221,662h-7.69Z"/><path d="M271.59,659.36a12,12,0,0,1-7.24,2.35c-7.05,0-12.51-5.2-12.51-13.21a19.61,19.61,0,0,1,5.46-13.4A18.31,18.31,0,0,1,270.39,630,32.26,32.26,0,0,1,284,633.38l-4.89,27.76c-1.91,10.67-8.26,15.5-17.72,15.5A24,24,0,0,1,250.06,674l1.33-7.49A19.9,19.9,0,0,0,261.81,670c4.7,0,8.39-2.48,9.47-8.19l.44-2.35Zm3.94-21.66a15.71,15.71,0,0,0-5.78-1.14,9.49,9.49,0,0,0-7.37,3.24,12.7,12.7,0,0,0-2.92,8c0,4.58,2.86,7.56,7.11,7.56a10.66,10.66,0,0,0,6.23-2.16Z"/><path d="M323.36,659.36a12,12,0,0,1-7.24,2.35c-7.05,0-12.51-5.2-12.51-13.21a19.61,19.61,0,0,1,5.46-13.4A18.31,18.31,0,0,1,322.16,630a32.26,32.26,0,0,1,13.59,3.36l-4.89,27.76c-1.91,10.67-8.26,15.5-17.72,15.5A24,24,0,0,1,301.83,674l1.33-7.49A19.9,19.9,0,0,0,313.58,670c4.7,0,8.39-2.48,9.46-8.19l.45-2.35Zm3.94-21.66a15.71,15.71,0,0,0-5.78-1.14,9.49,9.49,0,0,0-7.37,3.24,12.7,12.7,0,0,0-2.92,8c0,4.58,2.86,7.56,7.11,7.56a10.66,10.66,0,0,0,6.23-2.16Z"/><path d="M340.39,648.18a18.92,18.92,0,0,1,5.2-13A17.11,17.11,0,0,1,358.17,630c8.77,0,15.31,5.59,15.31,14.48a18.87,18.87,0,0,1-5.21,13,17.09,17.09,0,0,1-12.57,5.15C346.93,662.67,340.39,657.08,340.39,648.18Zm22.36,4.89A12.1,12.1,0,0,0,365.8,645c0-4.7-2.93-8.26-8.07-8.26a8.6,8.6,0,0,0-6.61,2.86,12.12,12.12,0,0,0-3.05,8.07c0,4.7,2.92,8.25,8.07,8.25A8.62,8.62,0,0,0,362.75,653.07Z"/><path d="M378.25,648.18a18.89,18.89,0,0,1,5.21-13A17.07,17.07,0,0,1,396,630c8.77,0,15.31,5.59,15.31,14.48a18.87,18.87,0,0,1-5.21,13,17.1,17.1,0,0,1-12.58,5.15C384.79,662.67,378.25,657.08,378.25,648.18Zm22.36,4.89a12.09,12.09,0,0,0,3-8.06c0-4.7-2.92-8.26-8.06-8.26a8.6,8.6,0,0,0-6.61,2.86,12.12,12.12,0,0,0-3.05,8.07c0,4.7,2.92,8.25,8.07,8.25A8.62,8.62,0,0,0,400.61,653.07Z"/><path d="M436.56,659.49a11.83,11.83,0,0,1-8.26,3.18c-7,0-12.19-5.4-12.19-13.47a20.37,20.37,0,0,1,5.52-13.91A18,18,0,0,1,434.72,630a19.43,19.43,0,0,1,6.86,1.27l3.17-17.85h7.69L443.86,662h-7.62l.45-2.42ZM440.37,638a13.15,13.15,0,0,0-6-1.59,9.64,9.64,0,0,0-7.56,3.62,13.57,13.57,0,0,0-2.86,8.32c0,4.9,2.73,7.88,6.73,7.88a10.67,10.67,0,0,0,7.12-3.3Z"/><path d="M456.82,652.76h7.56l-8.83,18.55H450Z"/><path d="M507.2,659.36a12.06,12.06,0,0,1-7.25,2.35c-7.05,0-12.51-5.2-12.51-13.21a19.61,19.61,0,0,1,5.46-13.4A18.31,18.31,0,0,1,506,630a32.26,32.26,0,0,1,13.59,3.36l-4.89,27.76c-1.9,10.67-8.26,15.5-17.72,15.5A24,24,0,0,1,485.66,674l1.34-7.49A19.84,19.84,0,0,0,497.41,670c4.7,0,8.39-2.48,9.47-8.19l.44-2.35Zm3.93-21.66a15.63,15.63,0,0,0-5.78-1.14A9.48,9.48,0,0,0,498,639.8a12.65,12.65,0,0,0-2.93,8c0,4.58,2.86,7.56,7.12,7.56a10.65,10.65,0,0,0,6.22-2.16Z"/><path d="M523.58,662l5.53-31.25h7.62l-.82,4.76.12.06a14.53,14.53,0,0,1,10.49-5.14,9.18,9.18,0,0,1,2.41.32L547.66,638a9.4,9.4,0,0,0-2.48-.32,14,14,0,0,0-10.54,5.4L531.27,662Z"/><path d="M575.36,660.82a24.85,24.85,0,0,1-9.72,1.85c-8.64,0-15.95-4.58-15.95-14.17a19.19,19.19,0,0,1,5-13A16.58,16.58,0,0,1,567.1,630c7.43,0,13.34,4.76,13.34,12.83a23.91,23.91,0,0,1-.7,5.59H557.31c.26,5.21,3.94,7.87,9.15,7.87a25.53,25.53,0,0,0,10.17-2.54Zm-2-17.72c0-4.32-2.35-6.86-6.48-6.86s-7.3,2.67-8.7,6.86Z"/><path d="M612.64,662H605l.45-2.48-.13-.06a12.53,12.53,0,0,1-8.39,3.24c-6.79,0-12.07-5.34-12.07-13.47a19.93,19.93,0,0,1,5.66-13.91A18.37,18.37,0,0,1,603.81,630a32,32,0,0,1,13.79,3.68Zm-3.43-24.08a14.33,14.33,0,0,0-6-1.39,9.46,9.46,0,0,0-7.56,3.49,13.52,13.52,0,0,0-3,8.51c0,5,2.86,7.75,6.67,7.75a10.68,10.68,0,0,0,7.25-3.37Z"/><path d="M633.86,649.07a19.31,19.31,0,0,0-.32,3c0,2.42,1.21,3.94,4.07,3.94a12.66,12.66,0,0,0,3.81-.7L640.21,662a14.71,14.71,0,0,1-4.32.64c-5.46,0-10.16-2.67-10.16-9.15a24.34,24.34,0,0,1,.44-4.26l2.1-12h-5.4l1.14-6.54h5.4l1.53-8.71,7.75-.44-1.59,9.15h8.7l-1.14,6.54H636Z"/></svg>