<?xml version="1.0" encoding="UTF-8"?>
<!DOCTYPE svg PUBLIC "-//W3C//DTD SVG 1.0//EN" "http://www.w3.org/TR/2001/REC-SVG-20010904/DTD/svg10.dtd">
<svg xmlns="http://www.w3.org/2000/svg">
<metadata>
<version>1.0</version>
<id><![CDATA[Helvetica W02 Roman]]></id>
<vendor>Monotype Imaging Inc.</vendor>
<credits>
<name>Fonts.com WebFonts</name>
<URL>http://webfonts.fonts.com</URL>
<role>Home of the Web fonts</role>
</credits>
<license>
<URL>http://webfonts.fonts.com/Legal</URL>
</license>
<copyright><![CDATA[Part of the digitally encoded machine readable outline data for producing the Typefaces provided is copyrighted © 2004 - 2009 Linotype GmbH, www.linotype.com. All rights reserved. This software is the property of Linotype GmbH, and may not be reproduced, used, displayed, modified, disclosed or transferred without the express written approval of Linotype GmbH.  Copyright (c) 1985, 1987, 1989, 1990 Adobe Systems Incorporated. All rights reserved. Helvetica is a trademark of Linotype Corp. registered in the U.S. Patent and Trademark Office and may be registered in certain other jurisdictions in the name of Linotype Corp. or its licensee Linotype GmbH. This typeface is original artwork of Linotype Design Studio. The design may be protected in certain jurisdictions.]]></copyright>
<trademark><![CDATA[Helvetica is a trademark of Linotype Corp. registered in the U.S. Patent and Trademark Office and may be registered in certain other jurisdictions in the name of Linotype Corp. or its licensee Linotype GmbH.]]></trademark>
<licensee>
<name/>
</licensee>
</metadata>
<defs>
<font horiz-adv-x="539" id="66cac56e-d017-4544-9d0c-f7d978f0c5c2">
<font-face font-family="" panose-1="2 11 5 4 2 2 2 2 2 4" ascent="931" descent="-225" units-per-em="1000" alphabetic="0">
</font-face>
<missing-glyph horiz-adv-x="0"/>

<glyph unicode="&#xA;"/>
<glyph unicode="&#xD;" horiz-adv-x="0"/>
<glyph unicode=" " horiz-adv-x="278"/>
<glyph unicode="!" horiz-adv-x="278" d="M114 171L90 481V718H187V481L163 171H114ZM187 0H90V102H187V0Z"/>
<glyph unicode="&quot;" horiz-adv-x="355" d="M212 718H285V463H212V718ZM70 718H143V463H70V718Z"/>
<glyph unicode="#" horiz-adv-x="556" d="M226 415L206 273H331L350 415H226ZM359 0H293L322 210H197L168 0H102L131 210H28L37 273H140L159 415H56L65 478H168L197 688H264L235 478H359L388 688H455L426 478H529L520 415H417L397 273H500L491 210H388L359 0Z"/>
<glyph unicode="$" horiz-adv-x="556" d="M418 521Q415 541 410 559T391 593T356 620T300 638V399Q351 384 392 370T461 335T505 281T520 196Q520 132 497 91T441 25T369 -9T300 -19V-115H253V-19Q206 -16 166 -4T96 34T49 104T32 213H120Q122 173 129 146T151 100T190 71T253 54V319Q215 328 178 340T111 374T64 430T46 516Q46 556 61 592T105 654T170 695T253 711V775H300V711Q324 709 357 702T422 675T477 618T503 521H418ZM300 54Q333 54 358 64T399 92T424 133T432 180Q432 222 409 251T354 291L300 308V54ZM253 638Q224 638 202 629T165 603T142 566T134 522Q134 495 144 476T171 443T209 421T253 409V638Z"/>
<glyph unicode="%" horiz-adv-x="889" d="M273 -19H219L614 703H669L273 -19ZM579 164Q579 117 609 90T679 63Q701 63 719 71T751 93T772 125T780 164Q780 185 772 203T751 234T719 255T680 263Q659 263 641 255T609 234T587 202T579 164ZM509 164Q509 200 522 230T559 284T613 320T680 333Q715 333 746 320T800 284T836 230T850 164Q850 129 837 98T800 43T746 7T680 -7Q645 -7 614 6T559 42T523 97T509 164ZM109 526Q109 479 139 452T209 425Q231 425 249 433T281 455T302 487T310 526Q310 547 302 565T281 596T249 617T210 625Q189 625 171 617T139 596T117 564T109 526ZM39 526Q39 562 52 592T89 646T143 682T210 695Q245 695 276 682T330 646T366 592T380 526Q380 491 367 460T330 405T276 369T210 355Q175 355 144 368T89 404T53 459T39 526Z"/>
<glyph unicode="&amp;" horiz-adv-x="667" d="M645 0H531L464 82Q446 61 426 43T381 13T325 -7T255 -15Q188 -15 147 6T83 58T52 120T44 173Q44 210 50 239T75 294T124 346T206 399Q186 423 172 442T149 479T135 516T130 558Q130 589 141 618T173 669T227 704T300 718Q342 718 372 705T422 671T451 624T461 570Q461 532 449 503T417 452T375 412T332 382L463 226Q469 242 473 254T480 279T486 304T492 338H575Q572 301 559 254T517 155L645 0ZM286 439Q300 449 316 461T345 488T367 521T376 563Q376 587 368 602T349 626T324 638T299 642Q271 642 255 633T229 612T218 587T215 564Q215 546 222 528T240 494T263 463T286 439ZM255 339Q226 321 203 305T165 270T141 231T132 180Q132 146 146 124T181 87T224 67T261 61Q359 61 417 141L255 339Z"/>
<glyph unicode="'" horiz-adv-x="191" d="M59 718H132V463H59V718Z"/>
<glyph unicode="(" horiz-adv-x="333" d="M298 733Q266 673 241 622T199 515T172 393T162 237Q162 175 172 120T200 12T244 -94T299 -207H240Q201 -149 169 -95T115 15T80 131T68 261Q68 327 79 387T112 505T165 619T237 733H298Z"/>
<glyph unicode=")" horiz-adv-x="333" d="M35 -207Q67 -147 92 -96T134 10T161 132T171 289Q171 351 161 406T133 514T89 620T34 733H93Q132 674 163 620T217 511T252 395T265 265Q265 199 254 139T221 21T168 -93T96 -207H35Z"/>
<glyph unicode="*" horiz-adv-x="389" d="M59 646L164 608V718H224V608L329 646L349 591L241 557L308 465L259 431L194 525L129 431L80 465L147 557L39 591L59 646Z"/>
<glyph unicode="+" horiz-adv-x="584" d="M256 505H329V289H545V216H329V0H256V216H39V289H256V505Z"/>
<glyph unicode="," horiz-adv-x="278" d="M87 106H191V8Q191 -43 178 -73T147 -119T112 -140T87 -147V-101Q103 -100 113 -91T129 -67T137 -35T140 0H87V106Z"/>
<glyph unicode="-" horiz-adv-x="333" d="M289 232H44V322H289V232Z"/>
<glyph unicode="." horiz-adv-x="278" d="M191 0H87V106H191V0Z"/>
<glyph unicode="/" horiz-adv-x="278" d="M49 -19H-17L229 737H295L49 -19Z"/>
<glyph unicode="0" horiz-adv-x="556" d="M519 342Q519 287 510 224T474 107T401 17T278 -19Q202 -19 155 17T82 107T46 224T37 342Q37 397 46 460T81 577T155 667T278 703Q354 703 401 667T474 577T509 460T519 342ZM425 342Q425 474 390 549T278 624Q202 624 167 549T131 342Q131 210 166 135T278 60Q354 60 389 135T425 342Z"/>
<glyph unicode="1" horiz-adv-x="556" d="M359 0H265V499H101V569Q144 572 175 577T228 595T264 634T290 703H359V0Z"/>
<glyph unicode="2" horiz-adv-x="556" d="M44 451Q44 508 56 549T90 618T137 663T190 688T242 700T287 703Q333 703 373 689T443 647T490 581T507 493Q507 446 493 411T453 349T393 301T319 258L246 218Q210 198 187 179T151 141T132 108T125 83H507V0H26Q28 55 40 97T75 173T126 232T191 279L284 333Q312 349 335 364T376 397T403 438T413 497Q413 518 406 540T383 581T340 612T274 624Q224 624 196 604T154 556T137 499T132 451H44Z"/>
<glyph unicode="3" horiz-adv-x="556" d="M224 400Q235 399 247 399T270 398Q295 398 319 403T362 422T392 458T404 513Q404 529 399 548T379 584T339 612T274 624Q227 624 201 608T161 567T143 517T137 473H51Q51 512 60 552T95 626T164 681T278 703Q329 703 369 689T437 651T480 592T495 518Q495 484 487 459T465 417T435 388T405 373V371Q456 354 489 316T522 207Q522 164 508 123T463 51T384 0T269 -19Q230 -19 198 -11T139 12Q110 27 91 49T60 98T42 155T34 215H125Q126 190 131 163T152 113T197 75T275 60Q309 60 337 70T385 98T416 141T428 196Q428 240 411 266T369 305T315 321T264 325Q254 325 244 325T224 324V400Z"/>
<glyph unicode="4" horiz-adv-x="556" d="M106 247H332V566H330L106 247ZM420 171V0H332V171H25V257L347 703H420V247H523V171H420Z"/>
<glyph unicode="5" horiz-adv-x="556" d="M147 409Q170 426 202 439T283 453Q326 453 367 438T441 395T494 324T514 228Q514 199 505 157T469 75T392 9T259 -19Q224 -19 187 -11T118 19T62 78T32 175H123Q130 113 171 85T272 57Q306 57 333 70T380 104T409 155T420 218Q420 256 408 285T375 334T326 364T264 374Q226 374 193 357T134 307L58 311L111 688H475V602H177L147 409Z"/>
<glyph unicode="6" horiz-adv-x="556" d="M141 216Q141 188 149 160T176 110T222 74T289 60Q320 60 345 72T389 105T417 155T427 221Q427 244 420 270T397 318T353 354T285 369Q249 369 222 357T177 324T150 275T141 216ZM417 516Q409 563 381 593T296 624Q244 624 212 594T161 522T136 436T129 364L131 362Q139 376 152 391T186 419T234 440T298 448Q330 448 368 437T440 400T495 331T518 225Q518 171 503 130T451 49Q437 34 422 22T386 0T338 -14T273 -19Q253 -19 229 -14T181 3T134 34T92 83Q60 133 49 195T38 327Q38 366 42 408T58 493T89 573T137 640T205 686T298 703Q328 703 362 694T427 663T478 606T503 516H417Z"/>
<glyph unicode="7" horiz-adv-x="556" d="M37 688H523V611Q497 584 456 529T372 396T291 218T234 0H137Q146 72 173 153T239 314T325 469T424 602H37V688Z"/>
<glyph unicode="8" horiz-adv-x="556" d="M276 406Q333 406 367 438T401 519Q401 535 395 553T374 587T334 613T270 624Q235 624 212 613T176 586T158 550T153 514Q153 489 163 469T190 435T230 414T276 406ZM277 330Q240 330 213 319T167 290T141 248T132 200Q132 179 138 155T161 109T207 74T282 60Q306 60 331 65T376 85T410 126T423 193Q423 229 412 254T380 297T334 322T277 330ZM492 522Q492 484 483 459T459 416T430 390T402 374Q438 359 460 338T495 294T512 247T517 203Q517 161 503 121T460 50T386 0T279 -19Q264 -19 244 -17T201 -9T155 7T110 35Q83 56 69 80T47 127T39 169T38 202Q38 267 69 308T157 373Q112 390 87 425T62 510Q62 537 71 571T105 634T171 683T275 703Q333 703 374 686T442 643T480 585T492 522Z"/>
<glyph unicode="9" horiz-adv-x="556" d="M276 314Q293 314 316 319T361 342T396 390T411 474Q411 504 403 531T378 579T334 612T269 624Q207 624 170 581T133 466Q133 415 147 385T182 340T229 319T276 314ZM263 235Q214 235 174 251T104 296T58 367T42 462Q42 510 56 553T99 630T170 683T268 703Q324 703 364 687T431 644T475 583T500 512T511 441T514 377Q514 358 512 322T502 241T477 151T433 67T362 5T259 -19Q197 -19 157 1T93 49T60 110T50 169H138Q142 115 172 85T257 54Q329 54 369 117T426 317L424 319Q414 299 397 283T358 257T312 241T263 235Z"/>
<glyph unicode=":" horiz-adv-x="278" d="M191 410H87V516H191V410ZM191 0H87V106H191V0Z"/>
<glyph unicode=";" horiz-adv-x="278" d="M87 410V516H191V410H87ZM87 106H191V8Q191 -43 178 -73T147 -119T112 -140T87 -147V-101Q103 -100 113 -91T129 -67T137 -35T140 0H87V106Z"/>
<glyph unicode="&lt;" horiz-adv-x="584" d="M536 11L48 218V288L536 495V415L146 253L536 91V11Z"/>
<glyph unicode="=" horiz-adv-x="584" d="M545 115H39V188H545V115ZM545 317H39V390H545V317Z"/>
<glyph unicode="&gt;" horiz-adv-x="584" d="M48 495L536 288V218L48 11V91L438 253L48 415V495Z"/>
<glyph unicode="?" horiz-adv-x="556" d="M318 0H221V102H318V0ZM56 493Q57 518 59 543T69 591T92 637T135 681Q165 704 202 715T280 727Q322 727 360 715T428 677T474 616T492 531Q492 506 487 487T471 448T441 410T398 366Q375 344 359 327T332 292T316 250T311 193V183H223Q223 226 228 254T244 306T273 350T318 398Q343 423 358 440T383 471T395 501T398 537Q398 553 393 572T374 609T337 639T277 651Q229 651 202 633T163 589T147 536T144 493H56Z"/>
<glyph unicode="@" horiz-adv-x="1015" d="M662 556H730Q716 503 700 450T671 351T649 273T640 230Q640 216 644 209T661 201Q686 201 711 219T757 268T790 338T803 417Q803 477 781 525T720 606T632 657T524 675Q457 675 402 650T306 582T243 480T220 355Q220 289 244 232T310 133T408 67T531 43Q601 43 666 73T774 157H841Q817 116 783 84T709 28T623 -7T529 -19Q449 -19 379 10T258 91T177 211T147 361Q147 439 177 507T258 627T378 707T524 737Q593 737 655 714T765 650T840 551T868 425Q868 357 843 304T782 213T704 156T629 136Q603 136 585 151T565 199L563 198Q541 175 510 156T443 136Q411 136 384 149T338 183T307 234T296 296Q296 347 312 396T359 485T432 548T527 572Q563 572 592 554T642 494L662 556ZM611 408Q611 426 605 443T587 472T560 492T529 500Q496 500 468 481T420 434T389 371T378 305Q378 262 401 235T462 208Q494 208 521 228T568 278T599 343T611 408Z"/>
<glyph unicode="A" horiz-adv-x="667" d="M442 295L336 611H334L219 295H442ZM189 209L114 0H14L284 718H394L654 0H548L477 209H189Z"/>
<glyph unicode="B" horiz-adv-x="667" d="M171 83H378Q454 83 492 118T530 214Q530 252 515 275T476 312T422 330T362 335H171V83ZM74 718H390Q440 718 478 704T541 664T580 607T593 537Q593 519 589 499T575 458T546 420T497 387Q515 380 537 369T580 339T613 289T627 212Q627 169 611 131T565 63T489 17T383 0H74V718ZM171 414H346Q416 414 456 439T496 530Q496 581 462 608T347 635H171V414Z"/>
<glyph unicode="C" horiz-adv-x="722" d="M580 502Q570 549 547 578T496 624T436 645T379 651Q330 651 288 633T213 580T163 491T144 366Q144 303 156 248T196 153T269 90T382 67Q406 67 436 74T495 103T550 162T587 264H681Q671 196 648 149T594 71T529 21T464 -6T406 -17T367 -19Q306 -19 248 2T145 68T72 186T44 363Q44 446 67 514T133 632T238 709T379 737Q448 737 501 717T590 665T648 590T674 502H580Z"/>
<glyph unicode="D" horiz-adv-x="722" d="M178 83H366Q461 83 517 154T574 363Q574 499 516 567T359 635H178V83ZM81 718H372Q442 718 498 693T593 621T653 511T674 369Q674 309 660 244T610 124T515 35T368 0H81V718Z"/>
<glyph unicode="E" horiz-adv-x="667" d="M616 0H86V718H609V632H183V412H576V326H183V86H616V0Z"/>
<glyph unicode="F" horiz-adv-x="611" d="M183 0H86V718H583V632H183V412H535V326H183V0Z"/>
<glyph unicode="G" horiz-adv-x="778" d="M389 384H704V0H641L618 93Q581 42 518 12T381 -19Q335 -19 300 -12T239 8T194 34T161 62Q120 101 97 142T63 224T50 300T48 365Q48 431 68 497T130 616T236 703T388 737Q438 737 489 723T582 679T654 605T692 500H598Q586 547 562 576T508 622T446 645T383 651Q335 651 292 632T217 576T167 485T148 360Q148 305 158 252T196 157T269 90T387 64Q400 64 417 65T454 71T493 85T534 110Q581 147 597 195T613 301H389V384Z"/>
<glyph unicode="H" horiz-adv-x="722" d="M549 718H646V0H549V335H174V0H77V718H174V421H549V718Z"/>
<glyph unicode="I" horiz-adv-x="278" d="M188 0H91V718H188V0Z"/>
<glyph unicode="J" horiz-adv-x="500" d="M108 231V181Q108 116 136 90T216 64Q250 64 272 73T307 99T325 139T331 188V718H428V194Q428 131 410 90T361 25T294 -9T221 -19Q158 -19 119 -1T57 45T26 104T17 160V231H108Z"/>
<glyph unicode="K" horiz-adv-x="667" d="M173 0H76V718H173V370L521 718H655L356 428L663 0H537L286 360L173 252V0Z"/>
<glyph unicode="L" horiz-adv-x="556" d="M173 86H537V0H76V718H173V86Z"/>
<glyph unicode="M" horiz-adv-x="833" d="M667 0V424Q667 432 667 451T668 496Q668 522 668 550T669 603H667L465 0H369L167 602H165Q165 577 165 549T166 496Q166 471 166 452T167 424V0H73V718H212L417 111H419L623 718H761V0H667Z"/>
<glyph unicode="N" horiz-adv-x="722" d="M552 718H646V0H537L172 580H170V0H76V718H191L550 138H552V718Z"/>
<glyph unicode="O" horiz-adv-x="778" d="M739 359Q739 320 732 277T708 192T665 112T599 45T508 -2T389 -19Q322 -19 270 -2T179 44T114 112T71 192T47 277T39 359Q39 398 46 441T70 526T113 606T179 673T270 720T389 737Q456 737 508 720T599 674T664 606T707 526T731 441T739 359ZM639 359Q639 422 622 475T573 568T494 629T389 651Q330 651 284 629T206 568T156 476T139 359Q139 296 156 243T205 150T284 89T389 67Q447 67 493 89T572 150T622 242T639 359Z"/>
<glyph unicode="P" horiz-adv-x="667" d="M183 0H86V718H409Q459 718 498 703T565 660T607 596T622 516Q622 478 611 441T574 372T508 322T409 303H183V0ZM183 386H376Q409 386 435 392T481 414T511 454T522 515Q522 549 511 572T481 609T436 629T380 635H183V386Z"/>
<glyph unicode="Q" horiz-adv-x="778" d="M684 -56L574 29Q539 6 493 -6T389 -19Q322 -19 270 -2T179 44T114 112T71 192T47 277T39 359Q39 398 46 441T70 526T113 606T179 673T270 720T389 737Q456 737 508 720T599 674T664 606T707 526T731 441T739 359Q739 325 734 288T716 213T683 142T635 78L733 2L684 -56ZM469 208L560 137Q598 175 618 232T639 359Q639 422 622 475T573 568T494 629T389 651Q330 651 284 629T206 568T156 476T139 359Q139 296 156 243T205 150T284 89T389 67Q449 67 495 90L420 148L469 208Z"/>
<glyph unicode="R" horiz-adv-x="722" d="M185 391H410Q437 391 463 395T509 413T543 451T556 515Q556 557 543 581T510 617T468 632T427 635H185V391ZM185 0H88V718H420Q464 718 506 709T582 679T635 620T656 525Q656 485 647 457T624 410T591 377T556 353Q571 347 586 339T613 317T632 279T642 218L648 88Q648 73 649 63T655 44T666 29T684 16V0H565Q560 16 557 42T551 96T549 146T548 180Q548 202 545 225T528 266T489 296T420 308H185V0Z"/>
<glyph unicode="S" horiz-adv-x="667" d="M509 508Q507 550 491 578T449 623T392 647T331 654Q308 654 280 650T226 632T184 594T167 528Q167 505 174 490T194 464T221 447T252 437L457 390Q492 382 522 367T573 329T607 273T620 198Q620 134 594 92T526 26T435 -9T339 -19Q289 -19 254 -13T193 4T151 27T122 50Q76 92 63 136T49 232H140Q140 183 158 151T204 100T268 72T338 64Q364 64 397 68T458 86T506 122T526 185Q526 213 519 232T494 266T447 290T373 312L226 346Q208 350 182 359T132 388T91 437T73 515Q73 557 87 597T131 668T208 718T320 737Q414 737 469 713T552 653T589 578T600 508H509Z"/>
<glyph unicode="T" horiz-adv-x="611" d="M14 718H597V632H354V0H257V632H14V718Z"/>
<glyph unicode="U" horiz-adv-x="722" d="M644 718V252Q644 197 627 148T574 61T484 3T355 -19Q283 -19 231 2T145 60T95 142T79 239V718H176V266Q176 207 192 169T234 108T292 76T358 67Q391 67 425 76T486 107T530 167T547 264V718H644Z"/>
<glyph unicode="V" horiz-adv-x="667" d="M538 718H647L385 0H282L20 718H128L333 106H335L538 718Z"/>
<glyph unicode="W" horiz-adv-x="944" d="M305 0H203L16 718H121L255 134H257L418 718H524L685 134H687L821 718H928L739 0H637L473 595H471L305 0Z"/>
<glyph unicode="X" horiz-adv-x="667" d="M648 0H528L335 295L136 0H19L276 368L35 718H157L339 443L521 718H637L396 368L648 0Z"/>
<glyph unicode="Y" horiz-adv-x="667" d="M382 0H285V289L14 718H127L333 373L539 718H653L382 289V0Z"/>
<glyph unicode="Z" horiz-adv-x="611" d="M588 0H23V81L463 632H56V718H588V634L146 86H588V0Z"/>
<glyph unicode="[" horiz-adv-x="278" d="M142 -125H250V-196H63V722H250V651H142V-125Z"/>
<glyph unicode="\" horiz-adv-x="278" d="M-17 737H49L295 -19H228L-17 737Z"/>
<glyph unicode="]" horiz-adv-x="278" d="M136 651H28V722H215V-196H28V-125H136V651Z"/>
<glyph unicode="^" horiz-adv-x="469" d="M406 264L235 608L64 264H-14L199 688H271L483 264H406Z"/>
<glyph unicode="_" horiz-adv-x="556" d="M556 -75V-125H0V-75H556Z"/>
<glyph unicode="`" horiz-adv-x="333" d="M14 734H122L211 593H144L14 734Z"/>
<glyph unicode="a" horiz-adv-x="556" d="M384 267Q379 263 371 259T347 252T306 244T239 234Q223 232 204 228T167 214T139 190T127 149Q127 106 149 82T222 58Q253 58 282 67T333 93T370 132T384 181V267ZM62 364Q63 411 79 444T123 498T190 528T278 538Q288 538 306 537T347 530T391 516T431 490T460 449T472 392V91Q472 60 501 60Q507 60 514 61T530 64V0Q519 -3 508 -6T482 -10Q453 -10 435 -3T408 15T394 40T389 70Q376 56 360 41T320 14T268 -7T200 -15Q164 -15 134 -4T82 27T48 74T36 136Q36 152 40 177T61 228T108 273T195 300L340 318Q348 319 356 321T371 330T382 348T386 380Q386 465 263 465Q225 465 203 455T168 430T150 397T143 364H62Z"/>
<glyph unicode="b" horiz-adv-x="556" d="M426 263Q426 288 423 322T406 386T363 438T283 459Q235 459 207 437T165 380T146 308T142 237Q142 185 156 151T192 97T239 69T285 61Q321 61 347 76T391 119T417 183T426 263ZM58 0V718H146V457H148Q177 499 215 518T299 538Q351 538 391 518T460 463T502 380T517 277Q517 230 506 179T469 84T398 13T287 -15Q254 -15 230 -7T188 14T161 40T143 65H141V0H58Z"/>
<glyph unicode="c" horiz-adv-x="500" d="M392 347Q384 400 354 429T268 459Q227 459 200 442T155 396T131 332T124 262Q124 228 129 193T150 128T194 80T267 61Q312 61 346 93T392 185H477Q474 154 462 119T425 54T361 5T264 -15Q209 -15 166 4T92 59T46 142T30 247Q30 308 45 361T90 453T168 515T281 538Q332 538 368 521T427 477T462 415T477 347H392Z"/>
<glyph unicode="d" horiz-adv-x="556" d="M126 263Q126 220 134 183T160 119T204 77T267 61Q288 61 313 69T359 97T395 151T410 237Q410 269 406 307T388 380T345 436T269 459Q218 459 190 438T147 387T129 322T126 263ZM499 0H416V72H414Q400 45 382 29T345 2T305 -11T265 -15Q198 -15 154 13T84 84T46 178T35 277Q35 332 49 379T92 462T160 518T253 538Q289 538 314 529T358 505T389 476T409 449H411V718H499V0Z"/>
<glyph unicode="e" horiz-adv-x="556" d="M425 303Q423 333 415 361T390 411T346 446T279 459Q249 459 223 446T177 412T146 362T134 303H425ZM509 164Q508 155 503 138T486 100T458 58T416 21Q407 15 396 9T368 -3T328 -11T274 -15Q219 -15 176 4T102 59T56 142T40 247Q40 308 55 361T100 453T178 515T291 538Q348 538 390 517T460 455T502 359T516 233H134Q134 151 172 106T286 61Q317 61 341 71T383 98T410 131T421 164H509Z"/>
<glyph unicode="f" horiz-adv-x="278" d="M174 450V0H86V450H14V523H86V613Q86 673 121 700T222 728Q232 728 241 728T262 726V647Q254 648 244 648T226 649Q197 649 186 635T174 588V523H262V450H174Z"/>
<glyph unicode="g" horiz-adv-x="556" d="M499 43Q499 24 498 -2T490 -58T469 -117T427 -168T358 -205T256 -220Q233 -220 201 -215T139 -194T86 -147T56 -64H144Q150 -95 166 -112T201 -136T237 -145T262 -147Q317 -147 347 -129T391 -83T408 -25T411 30V59Q392 27 358 6T270 -15Q203 -15 159 13T89 84T51 178T40 277Q40 332 54 379T97 462T165 518T258 538Q294 538 320 528T364 504T395 474T416 446V523H499V43ZM131 263Q131 220 139 183T165 119T209 77T272 61Q293 61 318 69T364 97T400 151T415 237Q415 269 411 307T393 380T350 436T274 459Q223 459 195 438T152 387T134 322T131 263Z"/>
<glyph unicode="h" horiz-adv-x="556" d="M491 0H403V342Q403 369 399 390T383 427T351 450T299 459Q272 459 246 451T199 422T166 368T153 285V0H65V718H153V453H155Q164 465 177 480T209 508T252 529T308 538Q338 538 370 531T430 503T474 448T491 356V0Z"/>
<glyph unicode="i" horiz-adv-x="222" d="M67 618V718H155V618H67ZM155 0H67V523H155V0Z"/>
<glyph unicode="j" horiz-adv-x="222" d="M155 618H67V718H155V618ZM155 -77Q155 -94 153 -117T137 -160T97 -195T21 -210Q3 -210 -16 -207V-131H2Q21 -131 34 -130T54 -122T64 -102T67 -67V523H155V-77Z"/>
<glyph unicode="k" horiz-adv-x="500" d="M501 0H388L225 264L152 198V0H67V718H152V302L377 523H489L289 328L501 0Z"/>
<glyph unicode="l" horiz-adv-x="222" d="M155 0H67V718H155V0Z"/>
<glyph unicode="m" horiz-adv-x="833" d="M65 523H148V449H150Q157 459 169 474T201 504T246 528T308 538Q343 538 367 529T407 506T432 478T447 453Q463 471 479 487T513 514T554 531T607 538Q628 538 656 531T709 505T751 452T769 362V0H681V338Q681 392 661 425T584 459Q556 459 534 447T495 416T470 371T461 319V0H373V362Q373 378 370 395T357 427T331 450T291 459Q272 459 248 452T203 426T168 372T153 285V0H65V523Z"/>
<glyph unicode="n" horiz-adv-x="556" d="M491 0H403V322Q403 390 379 424T291 459Q272 459 248 452T203 426T168 372T153 285V0H65V523H148V449H150Q157 459 170 474T202 504T248 528T308 538Q338 538 370 531T430 503T474 448T491 356V0Z"/>
<glyph unicode="o" horiz-adv-x="556" d="M126 262Q126 236 132 202T154 136T201 84T278 62Q325 62 355 83T401 136T424 201T430 262Q430 288 424 322T402 388T355 440T278 462Q231 462 201 441T155 388T132 323T126 262ZM35 262Q35 313 49 362T94 451T169 514T278 538Q341 538 386 514T462 451T506 363T521 262Q521 211 507 162T462 73T387 10T278 -14Q215 -14 170 10T94 73T50 161T35 262Z"/>
<glyph unicode="p" horiz-adv-x="556" d="M58 523H141V449H143Q151 460 163 475T193 505T237 528T299 538Q351 538 391 518T460 463T502 380T517 277Q517 230 506 179T469 84T398 13T287 -15Q234 -15 200 6T148 55H146V-207H58V523ZM142 237Q142 185 156 151T192 97T239 69T285 61Q321 61 347 76T391 119T417 183T426 263Q426 288 423 322T406 386T363 438T283 459Q235 459 207 437T165 380T146 308T142 237Z"/>
<glyph unicode="q" horiz-adv-x="556" d="M410 237Q410 269 406 307T388 380T345 436T269 459Q218 459 190 438T147 387T129 322T126 263Q126 220 134 183T160 119T204 77T267 61Q288 61 313 69T359 97T395 151T410 237ZM494 -207H406V55H404Q387 27 353 6T265 -15Q198 -15 154 13T84 84T46 178T35 277Q35 332 49 379T92 462T160 518T253 538Q289 538 314 529T358 505T389 476T409 449H411V523H494V-207Z"/>
<glyph unicode="r" horiz-adv-x="333" d="M165 0H77V523H160V436H162Q188 482 223 510T309 538Q317 538 322 538T332 535V444H299Q268 444 244 433T202 403T175 358T165 304V0Z"/>
<glyph unicode="s" horiz-adv-x="500" d="M362 374Q362 386 358 401T341 430T304 453T238 462Q228 462 211 460T176 450T147 427T134 388Q134 372 139 362T156 344T185 330T229 318L317 296Q399 276 431 244T464 158Q464 117 448 85T405 31T339 -3T257 -15Q205 -15 169 -6T108 18T68 53T46 92T36 132T32 168H117Q118 153 122 134T141 99T182 72T256 61Q280 61 301 66T339 81T366 106T376 144Q376 175 352 190T272 219L170 244Q115 258 82 287T49 371Q49 414 65 445T109 497T172 528T247 538Q317 538 357 516T417 466T442 411T447 374H362Z"/>
<glyph unicode="t" horiz-adv-x="278" d="M173 450V110Q173 95 178 87T192 74T210 70T226 69H257V0Q233 -2 216 -4T191 -7Q158 -7 138 1T106 25T90 60T85 105V450H14V523H85V669H173V523H257V450H173Z"/>
<glyph unicode="u" horiz-adv-x="556" d="M406 0V76L404 78Q376 32 339 9T238 -15Q209 -15 179 -8T124 19T84 69T68 147V523H156V176Q156 144 164 122T185 87T217 67T257 61Q299 61 326 77T370 119T394 175T401 235V523H489V0H406Z"/>
<glyph unicode="v" horiz-adv-x="500" d="M396 523H492L293 0H199L8 523H110L246 97H248L396 523Z"/>
<glyph unicode="w" horiz-adv-x="722" d="M256 0H165L14 523H110L210 112H212L313 523H411L513 112H515L621 523H709L557 0H466L360 405H358L256 0Z"/>
<glyph unicode="x" horiz-adv-x="500" d="M490 0H378L248 197L122 0H11L195 269L20 523H133L254 339L375 523H483L306 269L490 0Z"/>
<glyph unicode="y" horiz-adv-x="500" d="M392 523H489Q443 394 398 267T301 10Q270 -70 250 -114T210 -181T164 -209T96 -214Q86 -214 78 -212T59 -206V-126Q67 -129 80 -132T112 -135Q129 -135 140 -132T160 -115T179 -79T205 -14L11 523H111L250 97H252L392 523Z"/>
<glyph unicode="z" horiz-adv-x="500" d="M148 73H469V0H31V69L346 450H55V523H460V451L148 73Z"/>
<glyph unicode="{" horiz-adv-x="334" d="M42 294Q77 294 100 330T123 421V593Q123 624 132 648T155 688T187 713T225 722H292V657H248Q222 657 212 633T202 575V405Q200 368 189 343T163 301T135 276T114 265V263Q121 261 135 253T163 229T188 186T202 120V-49Q202 -82 212 -106T248 -131H292V-196H225Q206 -196 188 -188T155 -163T132 -122T123 -67V104Q123 161 100 197T42 234V294Z"/>
<glyph unicode="|" horiz-adv-x="260" d="M167 775V-225H94V775H167Z"/>
<glyph unicode="}" horiz-adv-x="334" d="M292 234Q257 234 234 198T211 104V-67Q211 -98 202 -122T179 -162T147 -187T109 -196H42V-131H86Q112 -131 122 -107T132 -49V120Q134 159 145 185T171 228T198 253T220 263V265Q212 267 199 275T171 300T146 342T132 405V575Q132 609 122 633T86 657H42V722H109Q128 722 146 714T179 689T202 648T211 593V421Q211 366 234 330T292 294V234Z"/>
<glyph unicode="~" horiz-adv-x="584" d="M523 270Q500 234 470 209T398 184Q370 184 346 193T296 217Q272 231 244 241T181 252Q164 252 152 246T129 229T111 206T97 180L61 236Q69 252 80 267T107 295T141 314T186 322Q212 322 240 313T297 290Q335 273 360 264T399 254Q414 254 426 260T449 277T469 300T487 326L523 270Z"/>
<glyph unicode=" " horiz-adv-x="278"/>
<glyph unicode="¡" horiz-adv-x="333" d="M191 352L215 42V-195H118V42L142 352H191ZM118 523H215V421H118V523Z"/>
<glyph unicode="¢" horiz-adv-x="556" d="M427 345Q424 357 420 372T408 401T389 428T359 447L249 61Q257 59 263 58T284 57Q307 57 329 62T370 80T404 119T428 183H513Q510 156 497 121T458 55T390 3T287 -19Q275 -19 261 -17T227 -12L196 -115H155L189 -1Q160 13 135 35T91 87T62 157T51 245Q51 387 115 462T297 538Q325 538 340 532L366 623H405L380 523Q393 519 413 508T453 476T488 423T509 345H427ZM320 459Q314 461 308 461T291 462Q259 462 232 450T184 411T151 343T139 245Q139 218 144 193T159 145T182 106T212 78L320 459Z"/>
<glyph unicode="£" horiz-adv-x="556" d="M102 380Q88 408 74 442T59 514Q59 545 70 581T110 647T186 698T306 718Q363 718 403 700T470 651T508 582T521 505V490H433V499Q433 530 423 556T395 602T352 631T296 642Q255 642 228 629T184 596T160 555T153 519Q153 490 166 458T204 380H371V317H233Q237 303 239 288T242 251Q242 208 214 158T123 66V65Q151 81 184 91T254 102Q277 102 300 97T345 85T386 73T422 67Q442 67 464 77T498 98L539 32Q507 8 478 -4T412 -16Q389 -16 364 -9T313 6T259 22T203 29Q174 29 144 18T86 -11L37 58Q76 84 100 111T137 164T154 211T159 245Q159 264 152 284T140 317H33V380H102Z"/>
<glyph unicode="¤" horiz-adv-x="556" d="M106 351Q106 315 119 283T156 226T210 187T278 172Q314 172 345 186T400 225T436 282T450 351Q450 386 437 418T400 474T345 513T278 528Q242 528 211 514T157 475T120 418T106 351ZM528 555L473 501Q499 472 511 433T523 351Q523 309 511 271T473 200L527 144L482 99L427 157Q397 129 358 116T278 102Q237 102 198 115T129 157L74 99L29 144L83 200Q57 232 45 270T33 351Q33 393 45 432T83 501L28 555L76 603L133 547Q162 572 200 585T278 598Q318 598 356 585T423 547L480 603L528 555Z"/>
<glyph unicode="¥" horiz-adv-x="556" d="M42 384H196L3 688H103L278 393L453 688H553L360 384H515V327H322V242H515V185H322V0H234V185H42V242H234V327H42V384Z"/>
<glyph unicode="¦" horiz-adv-x="260" d="M94 700H167V350H94V700ZM94 200H167V-150H94V200Z"/>
<glyph unicode="§" horiz-adv-x="556" d="M193 428Q164 413 145 390T126 331Q126 311 131 297T143 272T158 255T171 246L360 124Q389 143 409 165T429 225Q429 258 411 281T367 321L193 428ZM375 554Q374 566 372 584T360 619T331 649T276 661Q261 661 245 657T216 643T193 618T184 580Q184 552 203 531T257 490L403 404Q426 390 446 375T480 341T503 299T512 244Q512 212 503 188T480 145T447 111T409 84Q432 59 446 34T461 -30Q461 -69 445 -99T402 -149T344 -180T280 -191Q238 -191 202 -181T140 -147T98 -89T83 -3H171Q171 -15 173 -34T185 -71T214 -102T268 -115Q282 -115 300 -112T334 -101T362 -76T373 -32Q373 -6 359 12T318 47L108 187Q88 200 75 217T55 250T46 282T43 309Q43 341 50 365T71 407T103 440T143 467Q117 495 107 516T96 567Q96 595 105 625T136 680T192 721T276 737Q306 737 338 729T398 701T442 645T460 554H375Z"/>
<glyph unicode="¨" horiz-adv-x="333" d="M293 604H202V706H293V604ZM131 604H40V706H131V604Z"/>
<glyph unicode="©" horiz-adv-x="737" d="M569 289Q562 252 545 222T504 171T448 139T383 128Q332 128 291 146T221 195T176 269T160 361Q160 411 175 453T218 526T287 574T379 592Q415 592 447 582T504 552T546 503T568 435H501Q492 477 460 501T380 526Q345 526 318 514T273 479T246 427T236 362Q236 328 246 298T275 244T321 208T383 194Q431 194 462 220T501 289H569ZM62 360Q62 292 86 234T151 134T249 68T370 44Q434 44 490 68T587 134T652 234T676 360Q676 427 652 484T587 584T490 650T370 674Q305 674 249 650T152 584T86 485T62 360ZM370 -19Q292 -19 222 9T100 88T17 208T-14 360Q-14 441 16 510T99 630T222 708T370 737Q447 737 516 709T638 630T721 511T752 360Q752 278 722 209T639 89T517 10T370 -19Z"/>
<glyph unicode="ª" horiz-adv-x="370" d="M145 457Q165 457 183 462T216 477T239 500T248 528V570Q246 568 241 566T226 561T200 556T156 550Q145 549 133 547T111 540T94 527T87 507Q87 484 100 471T145 457ZM346 410Q338 408 331 407T314 405Q295 405 284 409T266 420T258 436T254 456Q237 439 209 422T131 405Q84 405 54 430T24 496Q24 507 27 523T41 554T75 581T136 598L224 608Q233 610 240 616T248 646Q248 662 231 673T172 685Q146 685 131 679T109 665T99 647T95 632H41Q43 689 81 713T182 737Q192 737 213 735T255 723T293 697T309 649V471Q309 452 327 452Q331 452 336 452T346 454V410Z"/>
<glyph unicode="«" horiz-adv-x="556" d="M459 108L302 231V323L459 446V358L354 277L459 196V108ZM254 108L97 231V323L254 446V358L149 277L254 196V108Z"/>
<glyph unicode="¬" horiz-adv-x="584" d="M472 317H39V390H545V108H472V317Z"/>
<glyph unicode="­" horiz-adv-x="333" d="M289 232H44V322H289V232Z"/>
<glyph unicode="®" horiz-adv-x="737" d="M369 386Q390 386 409 387T443 396T466 417T475 457Q475 477 467 489T445 509T414 518T380 521H290V386H369ZM290 141H224V577H390Q468 577 506 548T544 453Q544 424 536 403T512 367T476 344T431 333L555 141H481L366 330H290V141ZM62 360Q62 292 86 234T151 134T249 68T370 44Q434 44 490 68T587 134T652 234T676 360Q676 427 652 484T587 584T490 650T370 674Q305 674 249 650T152 584T86 485T62 360ZM370 -19Q292 -19 222 9T100 88T17 208T-14 360Q-14 441 16 510T99 630T222 708T370 737Q447 737 516 709T638 630T721 511T752 360Q752 278 722 209T639 89T517 10T370 -19Z"/>
<glyph unicode="¯" horiz-adv-x="333" d="M323 627H10V684H323V627Z"/>
<glyph unicode="°" horiz-adv-x="400" d="M346 557Q346 526 335 499T305 453T258 422T200 411Q169 411 142 422T96 452T65 499T54 557Q54 588 65 615T95 661T142 692T200 703Q231 703 258 692T304 662T335 615T346 557ZM200 660Q180 660 163 652T132 629T110 596T102 557Q102 537 110 519T131 486T162 463T200 454Q220 454 237 462T268 485T290 518T298 557Q298 577 290 595T269 628T238 651T200 660Z"/>
<glyph unicode="±" horiz-adv-x="584" d="M39 73H545V0H39V73ZM256 506H329V345H545V272H329V111H256V272H39V345H256V506Z"/>
<glyph unicode="²" horiz-adv-x="333" d="M19 552Q19 603 37 633T80 678T132 698T177 703Q208 703 234 695T280 670T311 630T323 577Q323 548 314 527T288 490T251 460T204 435L159 412Q124 393 107 376T79 342H323V281H4Q7 347 35 385T108 448L168 481Q187 491 203 500T230 519T247 544T253 579V585Q253 606 235 625T169 645Q137 645 120 634T93 608T82 577T79 552H19Z"/>
<glyph unicode="³" horiz-adv-x="333" d="M73 410Q74 397 77 383T89 356T114 336T159 328Q203 328 229 345T255 399Q255 426 245 440T218 461T185 469T152 471H129V522H156Q189 522 213 535T238 589Q238 597 235 606T224 624T200 639T158 645Q133 645 118 638T93 618T81 592T77 565H16Q16 588 22 612T46 657T93 690T167 703Q233 703 270 672T308 592Q308 572 303 557T288 531T269 514T249 505V503Q283 494 304 471T325 406Q325 380 316 356T286 312T235 282T158 270Q132 270 112 275T74 289Q36 307 22 340T5 410H73Z"/>
<glyph unicode="´" horiz-adv-x="333" d="M189 593H122L211 734H319L189 593Z"/>
<glyph unicode="µ" horiz-adv-x="578" d="M559 -3Q559 -3 541 -5T502 -7Q456 -7 435 11T405 79Q389 40 358 13T266 -14Q226 -14 198 5T156 48V-207H68V523H156V182Q156 150 166 127T192 90T229 69T271 62Q342 62 372 108T402 234V523H490V141Q490 109 496 92T528 74Q539 74 549 75T559 77V-3Z"/>
<glyph unicode="¶" horiz-adv-x="537" d="M232 344Q184 344 145 358T77 397T34 455T18 528Q18 627 81 672T249 718H497V-173H424V658H305V-173H232V344Z"/>
<glyph unicode="·" horiz-adv-x="278" d="M140 315Q163 315 182 297T202 252Q202 228 184 209T139 190Q113 190 95 208T77 252Q77 280 96 297T140 315Z"/>
<glyph unicode="¸" horiz-adv-x="333" d="M143 0H190L144 -62Q152 -60 158 -59T175 -58Q199 -58 215 -65T241 -83T255 -108T259 -133Q259 -172 228 -198T141 -225Q113 -225 89 -218T45 -203L62 -163Q81 -171 94 -174T127 -178Q134 -178 143 -177T162 -171T177 -158T183 -136Q183 -124 178 -117T165 -105T149 -99T135 -97Q128 -97 120 -98T96 -105L79 -86L143 0Z"/>
<glyph unicode="¹" horiz-adv-x="333" d="M43 577V623Q71 625 91 628T125 639T149 662T166 703H222V281H151V577H43Z"/>
<glyph unicode="º" horiz-adv-x="365" d="M274 571Q274 586 271 606T258 643T231 673T183 685Q153 685 136 673T108 644T95 606T92 571Q92 556 95 536T108 499T135 469T183 457Q213 457 230 469T258 498T271 536T274 571ZM341 571Q341 522 327 490T290 439T239 413T183 405Q155 405 127 412T77 439T40 490T25 571Q25 620 39 652T76 703T127 729T183 737Q211 737 239 730T289 703T326 652T341 571Z"/>
<glyph unicode="»" horiz-adv-x="556" d="M302 108V196L407 277L302 358V446L459 323V231L302 108ZM97 108V196L202 277L97 358V446L254 323V231L97 108Z"/>
<glyph unicode="¼" horiz-adv-x="834" d="M73 580V623Q101 625 121 628T155 639T179 662T196 703H249V281H181V580H73ZM211 -19H154L596 703H653L211 -19ZM625 339H623L481 152H625V339ZM419 154L625 422H689V152H756V94H689V0H625V94H419V154Z"/>
<glyph unicode="½" horiz-adv-x="834" d="M469 271Q469 322 487 352T530 397T582 417T627 422Q658 422 684 414T730 389T761 349T773 296Q773 267 764 246T738 209T701 179T654 154L609 131Q574 112 557 95T529 61H773V0H454Q457 66 485 104T558 167L618 200Q637 210 653 219T680 238T697 263T703 298V304Q703 325 685 344T619 364Q587 364 570 353T543 327T532 296T529 271H469ZM43 577V623Q71 625 91 628T125 639T149 662T166 703H222V281H151V577H43ZM175 -19H118L560 703H617L175 -19Z"/>
<glyph unicode="¾" horiz-adv-x="834" d="M113 410Q114 397 117 383T129 356T154 336T199 328Q243 328 269 345T295 399Q295 426 285 440T258 461T225 469T192 471H169V522H196Q229 522 253 535T278 589Q278 597 275 606T264 624T240 639T198 645Q173 645 158 638T133 618T121 592T117 565H56Q56 588 62 612T86 657T133 690T207 703Q273 703 310 672T348 592Q348 572 343 557T328 531T309 514T289 505V503Q323 494 344 471T365 406Q365 380 356 356T326 312T275 282T198 270Q172 270 152 275T114 289Q76 307 62 340T45 410H113ZM270 -19H213L655 703H712L270 -19ZM535 152H679V339H677L535 152ZM473 154L679 422H743V152H810V94H743V0H679V94H473V154Z"/>
<glyph unicode="¿" horiz-adv-x="611" d="M265 525H362V423H265V525ZM527 33Q526 7 524 -17T514 -65T491 -111T448 -155Q418 -178 381 -189T303 -201Q261 -201 223 -189T155 -151T109 -90T91 -5Q91 20 96 39T112 78T141 116T185 160Q208 182 224 199T251 234T267 276T272 333V343H360Q360 300 355 272T339 220T309 176T265 128Q240 102 225 86T200 55T188 25T185 -11Q185 -27 190 -46T209 -83T246 -113T306 -125Q354 -125 381 -107T420 -63T436 -10T439 33H527Z"/>
<glyph unicode="À" horiz-adv-x="667" d="M442 295L336 611H334L219 295H442ZM189 209L114 0H14L284 718H394L654 0H548L477 209H189ZM181 929H289L378 788H311L181 929Z"/>
<glyph unicode="Á" horiz-adv-x="667" d="M442 295L336 611H334L219 295H442ZM189 209L114 0H14L284 718H394L654 0H548L477 209H189ZM356 788H289L378 929H486L356 788Z"/>
<glyph unicode="Â" horiz-adv-x="667" d="M442 295L336 611H334L219 295H442ZM189 209L114 0H14L284 718H394L654 0H548L477 209H189ZM267 788H188L287 929H380L479 788H399L333 881L267 788Z"/>
<glyph unicode="Ã" horiz-adv-x="667" d="M442 295L336 611H334L219 295H442ZM189 209L114 0H14L284 718H394L654 0H548L477 209H189ZM514 917Q509 872 483 840T414 808Q400 808 388 811T355 821L329 830Q303 839 290 842T268 845Q248 845 238 833T221 801H173Q176 823 183 842T202 876T233 899T277 908Q297 908 313 904T345 893L367 884Q381 878 394 875T414 871Q429 871 438 875T452 887T460 902T464 917H514Z"/>
<glyph unicode="Ä" horiz-adv-x="667" d="M442 295L336 611H334L219 295H442ZM189 209L114 0H14L284 718H394L654 0H548L477 209H189ZM460 799H369V901H460V799ZM298 799H207V901H298V799Z"/>
<glyph unicode="Å" horiz-adv-x="667" d="M442 295L336 611H334L219 295H442ZM189 209L114 0H14L284 718H394L654 0H548L477 209H189ZM282 839Q282 817 297 802T334 787Q356 787 371 802T386 839Q386 861 371 876T334 891Q312 891 297 876T282 839ZM334 931Q374 931 400 905T426 839Q426 799 400 773T334 747Q294 747 268 773T242 839Q242 879 268 905T334 931Z"/>
<glyph unicode="Æ" horiz-adv-x="1000" d="M457 632H360L227 295H457V632ZM113 0H8L300 718H944V632H554V412H910V326H554V86H951V0H457V209H192L113 0Z"/>
<glyph unicode="Ç" horiz-adv-x="722" d="M282 -163Q301 -171 314 -174T347 -178Q354 -178 363 -177T382 -171T397 -158T403 -136Q403 -124 398 -117T385 -105T369 -99T355 -97Q348 -97 340 -98T316 -105L299 -86L350 -17Q291 -15 236 7T139 74T70 191T44 363Q44 446 67 514T133 632T238 709T379 737Q448 737 501 717T590 665T648 590T674 502H580Q570 549 547 578T496 624T436 645T379 651Q330 651 288 633T213 580T163 491T144 366Q144 303 156 248T196 153T269 90T382 67Q406 67 436 74T495 103T550 162T587 264H681Q668 176 633 122T556 38T470 -3T397 -17L364 -62Q372 -60 378 -59T395 -58Q419 -58 435 -65T461 -83T475 -108T479 -133Q479 -172 448 -198T361 -225Q333 -225 309 -218T265 -203L282 -163Z"/>
<glyph unicode="È" horiz-adv-x="667" d="M616 0H86V718H609V632H183V412H576V326H183V86H616V0ZM181 929H289L378 788H311L181 929Z"/>
<glyph unicode="É" horiz-adv-x="667" d="M616 0H86V718H609V632H183V412H576V326H183V86H616V0ZM356 788H289L378 929H486L356 788Z"/>
<glyph unicode="Ê" horiz-adv-x="667" d="M616 0H86V718H609V632H183V412H576V326H183V86H616V0ZM267 788H188L287 929H380L479 788H399L333 881L267 788Z"/>
<glyph unicode="Ë" horiz-adv-x="667" d="M616 0H86V718H609V632H183V412H576V326H183V86H616V0ZM460 799H369V901H460V799ZM298 799H207V901H298V799Z"/>
<glyph unicode="Ì" horiz-adv-x="278" d="M188 0H91V718H188V0ZM-11 929H97L186 788H119L-11 929Z"/>
<glyph unicode="Í" horiz-adv-x="278" d="M188 0H91V718H188V0ZM164 788H97L186 929H294L164 788Z"/>
<glyph unicode="Î" horiz-adv-x="278" d="M188 0H91V718H188V0ZM75 788H-4L95 929H188L287 788H207L141 881L75 788Z"/>
<glyph unicode="Ï" horiz-adv-x="278" d="M188 0H91V718H188V0ZM268 799H177V901H268V799ZM106 799H15V901H106V799Z"/>
<glyph unicode="Ð" horiz-adv-x="722" d="M0 412H81V718H372Q442 718 498 693T593 621T653 511T674 369Q674 354 672 321T660 246T631 162T577 82T492 23T368 0H81V356H0V412ZM370 356H178V83H366Q461 83 517 154T574 363Q574 499 516 567T359 635H178V412H370V356Z"/>
<glyph unicode="Ñ" horiz-adv-x="722" d="M552 718H646V0H537L172 580H170V0H76V718H191L550 138H552V718ZM542 917Q537 872 511 840T442 808Q428 808 416 811T383 821L357 830Q331 839 318 842T296 845Q276 845 266 833T249 801H201Q204 823 211 842T230 876T261 899T305 908Q325 908 341 904T373 893L395 884Q409 878 422 875T442 871Q457 871 466 875T480 887T488 902T492 917H542Z"/>
<glyph unicode="Ò" horiz-adv-x="778" d="M739 359Q739 320 732 277T708 192T665 112T599 45T508 -2T389 -19Q322 -19 270 -2T179 44T114 112T71 192T47 277T39 359Q39 398 46 441T70 526T113 606T179 673T270 720T389 737Q456 737 508 720T599 674T664 606T707 526T731 441T739 359ZM639 359Q639 422 622 475T573 568T494 629T389 651Q330 651 284 629T206 568T156 476T139 359Q139 296 156 243T205 150T284 89T389 67Q447 67 493 89T572 150T622 242T639 359ZM237 929H345L434 788H367L237 929Z"/>
<glyph unicode="Ó" horiz-adv-x="778" d="M739 359Q739 320 732 277T708 192T665 112T599 45T508 -2T389 -19Q322 -19 270 -2T179 44T114 112T71 192T47 277T39 359Q39 398 46 441T70 526T113 606T179 673T270 720T389 737Q456 737 508 720T599 674T664 606T707 526T731 441T739 359ZM639 359Q639 422 622 475T573 568T494 629T389 651Q330 651 284 629T206 568T156 476T139 359Q139 296 156 243T205 150T284 89T389 67Q447 67 493 89T572 150T622 242T639 359ZM412 788H345L434 929H542L412 788Z"/>
<glyph unicode="Ô" horiz-adv-x="778" d="M739 359Q739 320 732 277T708 192T665 112T599 45T508 -2T389 -19Q322 -19 270 -2T179 44T114 112T71 192T47 277T39 359Q39 398 46 441T70 526T113 606T179 673T270 720T389 737Q456 737 508 720T599 674T664 606T707 526T731 441T739 359ZM639 359Q639 422 622 475T573 568T494 629T389 651Q330 651 284 629T206 568T156 476T139 359Q139 296 156 243T205 150T284 89T389 67Q447 67 493 89T572 150T622 242T639 359ZM323 788H244L343 929H436L535 788H455L389 881L323 788Z"/>
<glyph unicode="Õ" horiz-adv-x="778" d="M739 359Q739 320 732 277T708 192T665 112T599 45T508 -2T389 -19Q322 -19 270 -2T179 44T114 112T71 192T47 277T39 359Q39 398 46 441T70 526T113 606T179 673T270 720T389 737Q456 737 508 720T599 674T664 606T707 526T731 441T739 359ZM639 359Q639 422 622 475T573 568T494 629T389 651Q330 651 284 629T206 568T156 476T139 359Q139 296 156 243T205 150T284 89T389 67Q447 67 493 89T572 150T622 242T639 359ZM560 917Q555 872 529 840T460 808Q446 808 434 811T401 821L375 830Q349 839 336 842T314 845Q294 845 284 833T267 801H219Q222 823 229 842T248 876T279 899T323 908Q343 908 359 904T391 893L413 884Q427 878 440 875T460 871Q475 871 484 875T498 887T506 902T510 917H560Z"/>
<glyph unicode="Ö" horiz-adv-x="778" d="M739 359Q739 320 732 277T708 192T665 112T599 45T508 -2T389 -19Q322 -19 270 -2T179 44T114 112T71 192T47 277T39 359Q39 398 46 441T70 526T113 606T179 673T270 720T389 737Q456 737 508 720T599 674T664 606T707 526T731 441T739 359ZM639 359Q639 422 622 475T573 568T494 629T389 651Q330 651 284 629T206 568T156 476T139 359Q139 296 156 243T205 150T284 89T389 67Q447 67 493 89T572 150T622 242T639 359ZM516 799H425V901H516V799ZM354 799H263V901H354V799Z"/>
<glyph unicode="×" horiz-adv-x="584" d="M39 455L91 506L292 305L494 506L545 455L344 253L545 51L494 0L292 201L90 0L39 51L241 253L39 455Z"/>
<glyph unicode="Ø" horiz-adv-x="778" d="M657 616Q702 558 720 489T739 359Q739 320 732 277T708 192T665 112T599 45T508 -2T389 -19Q310 -19 252 5T153 68L73 -19L41 9L124 99Q101 128 85 160T58 227T44 294T39 359Q39 398 46 441T70 526T113 606T179 673T270 720T389 737Q470 737 529 713T628 648L709 737L740 707L657 616ZM564 578Q532 613 488 632T389 651Q330 651 284 629T206 568T156 476T139 359Q139 304 152 257T190 171L564 578ZM217 138Q249 104 292 86T389 67Q447 67 493 89T572 150T622 242T639 359Q639 469 590 543L217 138Z"/>
<glyph unicode="Ù" horiz-adv-x="722" d="M644 718V252Q644 197 627 148T574 61T484 3T355 -19Q283 -19 231 2T145 60T95 142T79 239V718H176V266Q176 207 192 169T234 108T292 76T358 67Q391 67 425 76T486 107T530 167T547 264V718H644ZM209 929H317L406 788H339L209 929Z"/>
<glyph unicode="Ú" horiz-adv-x="722" d="M644 718V252Q644 197 627 148T574 61T484 3T355 -19Q283 -19 231 2T145 60T95 142T79 239V718H176V266Q176 207 192 169T234 108T292 76T358 67Q391 67 425 76T486 107T530 167T547 264V718H644ZM384 788H317L406 929H514L384 788Z"/>
<glyph unicode="Û" horiz-adv-x="722" d="M644 718V252Q644 197 627 148T574 61T484 3T355 -19Q283 -19 231 2T145 60T95 142T79 239V718H176V266Q176 207 192 169T234 108T292 76T358 67Q391 67 425 76T486 107T530 167T547 264V718H644ZM295 788H216L315 929H408L507 788H427L361 881L295 788Z"/>
<glyph unicode="Ü" horiz-adv-x="722" d="M644 718V252Q644 197 627 148T574 61T484 3T355 -19Q283 -19 231 2T145 60T95 142T79 239V718H176V266Q176 207 192 169T234 108T292 76T358 67Q391 67 425 76T486 107T530 167T547 264V718H644ZM488 799H397V901H488V799ZM326 799H235V901H326V799Z"/>
<glyph unicode="Ý" horiz-adv-x="667" d="M382 0H285V289L14 718H127L333 373L539 718H653L382 289V0ZM356 788H289L378 929H486L356 788Z"/>
<glyph unicode="Þ" horiz-adv-x="667" d="M86 718H183V599H409Q459 599 498 584T565 541T607 477T622 397Q622 359 611 322T574 253T508 203T409 184H183V0H86V718ZM183 267H376Q409 267 435 273T481 295T511 335T522 396Q522 430 511 453T481 490T436 510T380 516H183V267Z"/>
<glyph unicode="ß" horiz-adv-x="611" d="M67 532Q67 575 82 611T126 673T198 713T298 728Q353 728 397 715T473 679T520 622T537 548Q537 512 528 486T505 443T478 416T455 400Q483 392 504 375T541 334T563 286T571 238Q571 172 552 124T499 45T419 0T319 -15Q297 -15 287 -13T266 -8V67Q288 64 310 64Q392 64 436 101T480 214Q480 253 468 280T434 323T380 347T310 354Q287 354 271 350V429Q278 428 283 428T294 427Q339 427 369 436T416 461T441 497T449 540Q449 588 411 620T297 652Q255 652 228 642T184 613T162 568T155 510V0H67V532Z"/>
<glyph unicode="à" horiz-adv-x="556" d="M384 267Q379 263 371 259T347 252T306 244T239 234Q223 232 204 228T167 214T139 190T127 149Q127 106 149 82T222 58Q253 58 282 67T333 93T370 132T384 181V267ZM62 364Q63 411 79 444T123 498T190 528T278 538Q288 538 306 537T347 530T391 516T431 490T460 449T472 392V91Q472 60 501 60Q507 60 514 61T530 64V0Q519 -3 508 -6T482 -10Q453 -10 435 -3T408 15T394 40T389 70Q376 56 360 41T320 14T268 -7T200 -15Q164 -15 134 -4T82 27T48 74T36 136Q36 152 40 177T61 228T108 273T195 300L340 318Q348 319 356 321T371 330T382 348T386 380Q386 465 263 465Q225 465 203 455T168 430T150 397T143 364H62ZM126 734H234L323 593H256L126 734Z"/>
<glyph unicode="á" horiz-adv-x="556" d="M384 267Q379 263 371 259T347 252T306 244T239 234Q223 232 204 228T167 214T139 190T127 149Q127 106 149 82T222 58Q253 58 282 67T333 93T370 132T384 181V267ZM62 364Q63 411 79 444T123 498T190 528T278 538Q288 538 306 537T347 530T391 516T431 490T460 449T472 392V91Q472 60 501 60Q507 60 514 61T530 64V0Q519 -3 508 -6T482 -10Q453 -10 435 -3T408 15T394 40T389 70Q376 56 360 41T320 14T268 -7T200 -15Q164 -15 134 -4T82 27T48 74T36 136Q36 152 40 177T61 228T108 273T195 300L340 318Q348 319 356 321T371 330T382 348T386 380Q386 465 263 465Q225 465 203 455T168 430T150 397T143 364H62ZM301 593H234L323 734H431L301 593Z"/>
<glyph unicode="â" horiz-adv-x="556" d="M384 267Q379 263 371 259T347 252T306 244T239 234Q223 232 204 228T167 214T139 190T127 149Q127 106 149 82T222 58Q253 58 282 67T333 93T370 132T384 181V267ZM62 364Q63 411 79 444T123 498T190 528T278 538Q288 538 306 537T347 530T391 516T431 490T460 449T472 392V91Q472 60 501 60Q507 60 514 61T530 64V0Q519 -3 508 -6T482 -10Q453 -10 435 -3T408 15T394 40T389 70Q376 56 360 41T320 14T268 -7T200 -15Q164 -15 134 -4T82 27T48 74T36 136Q36 152 40 177T61 228T108 273T195 300L340 318Q348 319 356 321T371 330T382 348T386 380Q386 465 263 465Q225 465 203 455T168 430T150 397T143 364H62ZM212 593H133L232 734H325L424 593H344L278 686L212 593Z"/>
<glyph unicode="ã" horiz-adv-x="556" d="M384 267Q379 263 371 259T347 252T306 244T239 234Q223 232 204 228T167 214T139 190T127 149Q127 106 149 82T222 58Q253 58 282 67T333 93T370 132T384 181V267ZM62 364Q63 411 79 444T123 498T190 528T278 538Q288 538 306 537T347 530T391 516T431 490T460 449T472 392V91Q472 60 501 60Q507 60 514 61T530 64V0Q519 -3 508 -6T482 -10Q453 -10 435 -3T408 15T394 40T389 70Q376 56 360 41T320 14T268 -7T200 -15Q164 -15 134 -4T82 27T48 74T36 136Q36 152 40 177T61 228T108 273T195 300L340 318Q348 319 356 321T371 330T382 348T386 380Q386 465 263 465Q225 465 203 455T168 430T150 397T143 364H62ZM449 722Q444 677 418 645T349 613Q335 613 323 616T290 626L264 635Q238 644 225 647T203 650Q183 650 173 638T156 606H108Q111 628 118 647T137 681T168 704T212 713Q232 713 248 709T280 698L302 689Q316 683 329 680T349 676Q364 676 373 680T387 692T395 707T399 722H449Z"/>
<glyph unicode="ä" horiz-adv-x="556" d="M384 267Q379 263 371 259T347 252T306 244T239 234Q223 232 204 228T167 214T139 190T127 149Q127 106 149 82T222 58Q253 58 282 67T333 93T370 132T384 181V267ZM62 364Q63 411 79 444T123 498T190 528T278 538Q288 538 306 537T347 530T391 516T431 490T460 449T472 392V91Q472 60 501 60Q507 60 514 61T530 64V0Q519 -3 508 -6T482 -10Q453 -10 435 -3T408 15T394 40T389 70Q376 56 360 41T320 14T268 -7T200 -15Q164 -15 134 -4T82 27T48 74T36 136Q36 152 40 177T61 228T108 273T195 300L340 318Q348 319 356 321T371 330T382 348T386 380Q386 465 263 465Q225 465 203 455T168 430T150 397T143 364H62ZM405 604H314V706H405V604ZM243 604H152V706H243V604Z"/>
<glyph unicode="å" horiz-adv-x="556" d="M384 267Q379 263 371 259T347 252T306 244T239 234Q223 232 204 228T167 214T139 190T127 149Q127 106 149 82T222 58Q253 58 282 67T333 93T370 132T384 181V267ZM62 364Q63 411 79 444T123 498T190 528T278 538Q288 538 306 537T347 530T391 516T431 490T460 449T472 392V91Q472 60 501 60Q507 60 514 61T530 64V0Q519 -3 508 -6T482 -10Q453 -10 435 -3T408 15T394 40T389 70Q376 56 360 41T320 14T268 -7T200 -15Q164 -15 134 -4T82 27T48 74T36 136Q36 152 40 177T61 228T108 273T195 300L340 318Q348 319 356 321T371 330T382 348T386 380Q386 465 263 465Q225 465 203 455T168 430T150 397T143 364H62ZM227 664Q227 642 242 627T279 612Q301 612 316 627T331 664Q331 686 316 701T279 716Q257 716 242 701T227 664ZM279 756Q319 756 345 730T371 664Q371 624 345 598T279 572Q239 572 213 598T187 664Q187 704 213 730T279 756Z"/>
<glyph unicode="æ" horiz-adv-x="889" d="M384 267Q379 263 371 259T347 252T306 244T239 234Q223 232 204 228T167 214T139 190T127 149Q127 106 149 82T222 58Q253 58 282 67T333 93T370 132T384 181V267ZM840 164Q839 155 834 138T817 100T789 58T747 21Q738 15 727 9T699 -3T659 -11T605 -15Q558 -15 525 -3T470 26T434 61T413 94Q375 36 323 11T200 -15Q164 -15 134 -4T82 27T48 74T36 136Q36 152 40 177T61 228T108 273T195 300L340 318Q348 319 356 321T371 330T382 348T386 380Q386 465 263 465Q225 465 203 455T168 430T150 397T143 364H62Q63 411 79 444T123 498T190 528T278 538Q315 538 341 532T387 516T420 492T448 464Q459 474 472 487T506 511T555 530T622 538Q679 538 721 517T791 455T833 359T847 233H465Q465 151 503 106T617 61Q648 61 672 71T714 98T741 131T752 164H840ZM756 303Q754 333 746 361T721 411T677 446T610 459Q580 459 554 446T508 412T477 362T465 303H756Z"/>
<glyph unicode="ç" horiz-adv-x="500" d="M172 -163Q191 -171 204 -174T237 -178Q244 -178 253 -177T272 -171T287 -158T293 -136Q293 -124 288 -117T275 -105T259 -99T245 -97Q238 -97 230 -98T206 -105L189 -86L243 -13Q192 -9 153 12T86 67T45 147T30 247Q30 308 45 361T90 453T168 515T281 538Q332 538 368 521T427 477T462 415T477 347H392Q384 400 354 429T268 459Q227 459 200 442T155 396T131 332T124 262Q124 228 129 193T150 128T194 80T267 61Q312 61 346 93T392 185H477Q474 156 463 123T431 62T375 13T291 -12L254 -62Q262 -60 268 -59T285 -58Q309 -58 325 -65T351 -83T365 -108T369 -133Q369 -172 338 -198T251 -225Q223 -225 199 -218T155 -203L172 -163Z"/>
<glyph unicode="è" horiz-adv-x="556" d="M425 303Q423 333 415 361T390 411T346 446T279 459Q249 459 223 446T177 412T146 362T134 303H425ZM509 164Q508 155 503 138T486 100T458 58T416 21Q407 15 396 9T368 -3T328 -11T274 -15Q219 -15 176 4T102 59T56 142T40 247Q40 308 55 361T100 453T178 515T291 538Q348 538 390 517T460 455T502 359T516 233H134Q134 151 172 106T286 61Q317 61 341 71T383 98T410 131T421 164H509ZM126 734H234L323 593H256L126 734Z"/>
<glyph unicode="é" horiz-adv-x="556" d="M425 303Q423 333 415 361T390 411T346 446T279 459Q249 459 223 446T177 412T146 362T134 303H425ZM509 164Q508 155 503 138T486 100T458 58T416 21Q407 15 396 9T368 -3T328 -11T274 -15Q219 -15 176 4T102 59T56 142T40 247Q40 308 55 361T100 453T178 515T291 538Q348 538 390 517T460 455T502 359T516 233H134Q134 151 172 106T286 61Q317 61 341 71T383 98T410 131T421 164H509ZM301 593H234L323 734H431L301 593Z"/>
<glyph unicode="ê" horiz-adv-x="556" d="M425 303Q423 333 415 361T390 411T346 446T279 459Q249 459 223 446T177 412T146 362T134 303H425ZM509 164Q508 155 503 138T486 100T458 58T416 21Q407 15 396 9T368 -3T328 -11T274 -15Q219 -15 176 4T102 59T56 142T40 247Q40 308 55 361T100 453T178 515T291 538Q348 538 390 517T460 455T502 359T516 233H134Q134 151 172 106T286 61Q317 61 341 71T383 98T410 131T421 164H509ZM212 593H133L232 734H325L424 593H344L278 686L212 593Z"/>
<glyph unicode="ë" horiz-adv-x="556" d="M425 303Q423 333 415 361T390 411T346 446T279 459Q249 459 223 446T177 412T146 362T134 303H425ZM509 164Q508 155 503 138T486 100T458 58T416 21Q407 15 396 9T368 -3T328 -11T274 -15Q219 -15 176 4T102 59T56 142T40 247Q40 308 55 361T100 453T178 515T291 538Q348 538 390 517T460 455T502 359T516 233H134Q134 151 172 106T286 61Q317 61 341 71T383 98T410 131T421 164H509ZM405 604H314V706H405V604ZM243 604H152V706H243V604Z"/>
<glyph unicode="ì" horiz-adv-x="278" d="M183 0H95V523H183V0ZM-11 734H97L186 593H119L-11 734Z"/>
<glyph unicode="í" horiz-adv-x="278" d="M183 0H95V523H183V0ZM164 593H97L186 734H294L164 593Z"/>
<glyph unicode="î" horiz-adv-x="278" d="M183 0H95V523H183V0ZM75 593H-4L95 734H188L287 593H207L141 686L75 593Z"/>
<glyph unicode="ï" horiz-adv-x="278" d="M183 0H95V523H183V0ZM268 604H177V706H268V604ZM106 604H15V706H106V604Z"/>
<glyph unicode="ð" horiz-adv-x="556" d="M362 646Q439 575 480 485T522 298Q522 208 500 148T443 52T367 0T286 -15Q220 -15 173 8T95 70T50 156T35 254Q35 303 50 351T94 438T165 499T264 523Q276 523 292 522T325 515T361 498T397 468L399 470Q382 513 351 549T288 612L164 550L122 592L240 649Q199 681 151 701L225 737Q277 717 316 686L422 737L469 697L362 646ZM126 254Q126 233 131 201T153 137T200 84T278 61Q326 61 355 83T401 137T424 200T430 254Q430 275 424 307T402 371T356 424T278 447Q230 447 200 425T154 371T132 308T126 254Z"/>
<glyph unicode="ñ" horiz-adv-x="556" d="M491 0H403V322Q403 390 379 424T291 459Q272 459 248 452T203 426T168 372T153 285V0H65V523H148V449H150Q157 459 170 474T202 504T248 528T308 538Q338 538 370 531T430 503T474 448T491 356V0ZM439 722Q434 677 408 645T339 613Q325 613 313 616T280 626L254 635Q228 644 215 647T193 650Q173 650 163 638T146 606H98Q101 628 108 647T127 681T158 704T202 713Q222 713 238 709T270 698L292 689Q306 683 319 680T339 676Q354 676 363 680T377 692T385 707T389 722H439Z"/>
<glyph unicode="ò" horiz-adv-x="556" d="M126 262Q126 236 132 202T154 136T201 84T278 62Q325 62 355 83T401 136T424 201T430 262Q430 288 424 322T402 388T355 440T278 462Q231 462 201 441T155 388T132 323T126 262ZM35 262Q35 313 49 362T94 451T169 514T278 538Q341 538 386 514T462 451T506 363T521 262Q521 211 507 162T462 73T387 10T278 -14Q215 -14 170 10T94 73T50 161T35 262ZM126 734H234L323 593H256L126 734Z"/>
<glyph unicode="ó" horiz-adv-x="556" d="M126 262Q126 236 132 202T154 136T201 84T278 62Q325 62 355 83T401 136T424 201T430 262Q430 288 424 322T402 388T355 440T278 462Q231 462 201 441T155 388T132 323T126 262ZM35 262Q35 313 49 362T94 451T169 514T278 538Q341 538 386 514T462 451T506 363T521 262Q521 211 507 162T462 73T387 10T278 -14Q215 -14 170 10T94 73T50 161T35 262ZM301 593H234L323 734H431L301 593Z"/>
<glyph unicode="ô" horiz-adv-x="556" d="M126 262Q126 236 132 202T154 136T201 84T278 62Q325 62 355 83T401 136T424 201T430 262Q430 288 424 322T402 388T355 440T278 462Q231 462 201 441T155 388T132 323T126 262ZM35 262Q35 313 49 362T94 451T169 514T278 538Q341 538 386 514T462 451T506 363T521 262Q521 211 507 162T462 73T387 10T278 -14Q215 -14 170 10T94 73T50 161T35 262ZM212 593H133L232 734H325L424 593H344L278 686L212 593Z"/>
<glyph unicode="õ" horiz-adv-x="556" d="M126 262Q126 236 132 202T154 136T201 84T278 62Q325 62 355 83T401 136T424 201T430 262Q430 288 424 322T402 388T355 440T278 462Q231 462 201 441T155 388T132 323T126 262ZM35 262Q35 313 49 362T94 451T169 514T278 538Q341 538 386 514T462 451T506 363T521 262Q521 211 507 162T462 73T387 10T278 -14Q215 -14 170 10T94 73T50 161T35 262ZM449 722Q444 677 418 645T349 613Q335 613 323 616T290 626L264 635Q238 644 225 647T203 650Q183 650 173 638T156 606H108Q111 628 118 647T137 681T168 704T212 713Q232 713 248 709T280 698L302 689Q316 683 329 680T349 676Q364 676 373 680T387 692T395 707T399 722H449Z"/>
<glyph unicode="ö" horiz-adv-x="556" d="M126 262Q126 236 132 202T154 136T201 84T278 62Q325 62 355 83T401 136T424 201T430 262Q430 288 424 322T402 388T355 440T278 462Q231 462 201 441T155 388T132 323T126 262ZM35 262Q35 313 49 362T94 451T169 514T278 538Q341 538 386 514T462 451T506 363T521 262Q521 211 507 162T462 73T387 10T278 -14Q215 -14 170 10T94 73T50 161T35 262ZM405 604H314V706H405V604ZM243 604H152V706H243V604Z"/>
<glyph unicode="÷" horiz-adv-x="584" d="M224 49Q224 78 244 97T292 117Q320 117 340 97T360 49Q360 23 340 2T292 -19Q265 -19 245 1T224 49ZM224 456Q224 485 244 504T292 524Q320 524 340 504T360 456Q360 430 340 409T292 388Q265 388 245 408T224 456ZM39 216V289H545V216H39Z"/>
<glyph unicode="ø" horiz-adv-x="611" d="M174 108Q191 88 216 75T278 62Q325 62 355 83T401 136T424 201T430 262Q430 285 426 315T408 373L174 108ZM387 410Q370 433 343 447T278 462Q231 462 201 441T155 388T132 323T126 262Q126 237 131 205T151 143L387 410ZM468 441Q495 403 508 357T521 262Q521 211 507 162T462 73T387 10T278 -14Q227 -14 188 2T119 46L59 -22L28 4L92 76Q63 114 49 162T35 262Q35 313 49 362T94 451T169 514T278 538Q332 538 372 521T442 473L506 545L537 519L468 441Z"/>
<glyph unicode="ù" horiz-adv-x="556" d="M406 0V76L404 78Q376 32 339 9T238 -15Q209 -15 179 -8T124 19T84 69T68 147V523H156V176Q156 144 164 122T185 87T217 67T257 61Q299 61 326 77T370 119T394 175T401 235V523H489V0H406ZM126 734H234L323 593H256L126 734Z"/>
<glyph unicode="ú" horiz-adv-x="556" d="M406 0V76L404 78Q376 32 339 9T238 -15Q209 -15 179 -8T124 19T84 69T68 147V523H156V176Q156 144 164 122T185 87T217 67T257 61Q299 61 326 77T370 119T394 175T401 235V523H489V0H406ZM301 593H234L323 734H431L301 593Z"/>
<glyph unicode="û" horiz-adv-x="556" d="M406 0V76L404 78Q376 32 339 9T238 -15Q209 -15 179 -8T124 19T84 69T68 147V523H156V176Q156 144 164 122T185 87T217 67T257 61Q299 61 326 77T370 119T394 175T401 235V523H489V0H406ZM212 593H133L232 734H325L424 593H344L278 686L212 593Z"/>
<glyph unicode="ü" horiz-adv-x="556" d="M406 0V76L404 78Q376 32 339 9T238 -15Q209 -15 179 -8T124 19T84 69T68 147V523H156V176Q156 144 164 122T185 87T217 67T257 61Q299 61 326 77T370 119T394 175T401 235V523H489V0H406ZM405 604H314V706H405V604ZM243 604H152V706H243V604Z"/>
<glyph unicode="ý" horiz-adv-x="500" d="M392 523H489Q443 394 398 267T301 10Q270 -70 250 -114T210 -181T164 -209T96 -214Q86 -214 78 -212T59 -206V-126Q67 -129 80 -132T112 -135Q129 -135 140 -132T160 -115T179 -79T205 -14L11 523H111L250 97H252L392 523ZM273 593H206L295 734H403L273 593Z"/>
<glyph unicode="þ" horiz-adv-x="556" d="M58 718H146V451H148Q155 461 166 476T194 505T237 528T299 538Q351 538 391 518T460 463T502 380T517 277Q517 230 506 179T469 84T398 13T287 -15Q234 -15 200 6T148 55H146V-207H58V718ZM142 237Q142 185 156 151T192 97T239 69T285 61Q321 61 347 76T391 119T417 183T426 263Q426 288 423 322T406 386T363 438T283 459Q235 459 207 437T165 380T146 308T142 237Z"/>
<glyph unicode="ÿ" horiz-adv-x="500" d="M392 523H489Q443 394 398 267T301 10Q270 -70 250 -114T210 -181T164 -209T96 -214Q86 -214 78 -212T59 -206V-126Q67 -129 80 -132T112 -135Q129 -135 140 -132T160 -115T179 -79T205 -14L11 523H111L250 97H252L392 523ZM377 604H286V706H377V604ZM215 604H124V706H215V604Z"/>
<glyph unicode="Ā" horiz-adv-x="667" d="M442 295L336 611H334L219 295H442ZM189 209L114 0H14L284 718H394L654 0H548L477 209H189ZM495 825H182V882H495V825Z"/>
<glyph unicode="ā" horiz-adv-x="556" d="M384 267Q379 263 371 259T347 252T306 244T239 234Q223 232 204 228T167 214T139 190T127 149Q127 106 149 82T222 58Q253 58 282 67T333 93T370 132T384 181V267ZM62 364Q63 411 79 444T123 498T190 528T278 538Q288 538 306 537T347 530T391 516T431 490T460 449T472 392V91Q472 60 501 60Q507 60 514 61T530 64V0Q519 -3 508 -6T482 -10Q453 -10 435 -3T408 15T394 40T389 70Q376 56 360 41T320 14T268 -7T200 -15Q164 -15 134 -4T82 27T48 74T36 136Q36 152 40 177T61 228T108 273T195 300L340 318Q348 319 356 321T371 330T382 348T386 380Q386 465 263 465Q225 465 203 455T168 430T150 397T143 364H62ZM434 627H121V684H434V627Z"/>
<glyph unicode="Ă" horiz-adv-x="667" d="M442 295L336 611H334L219 295H442ZM189 209L114 0H14L284 718H394L654 0H548L477 209H189ZM494 928Q486 854 443 823T335 792Q285 792 257 808T213 847T192 892T186 928H235Q238 919 243 906T259 880Q270 867 290 858T343 849Q373 849 391 857T421 877T437 902T446 928H494Z"/>
<glyph unicode="ă" horiz-adv-x="556" d="M431 731Q428 701 419 676T391 632T344 604T277 594Q238 594 210 604T164 632T136 675T123 731H171Q176 696 203 674T276 651Q321 651 348 673T383 731H431ZM384 267Q379 263 371 259T347 252T306 244T239 234Q223 232 204 228T167 214T139 190T127 149Q127 106 149 82T222 58Q253 58 282 67T333 93T370 132T384 181V267ZM62 364Q63 411 79 444T123 498T190 528T278 538Q288 538 306 537T347 530T391 516T431 490T460 449T472 392V91Q472 60 501 60Q507 60 514 61T530 64V0Q519 -3 508 -6T482 -10Q453 -10 435 -3T408 15T394 40T389 70Q376 56 360 41T320 14T268 -7T200 -15Q164 -15 134 -4T82 27T48 74T36 136Q36 152 40 177T61 228T108 273T195 300L340 318Q348 319 356 321T371 330T382 348T386 380Q386 465 263 465Q225 465 203 455T168 430T150 397T143 364H62Z"/>
<glyph unicode="Ą" horiz-adv-x="667" d="M442 295L336 611H334L219 295H442ZM189 209L114 0H14L284 718H394L654 0H625Q605 -8 592 -15T568 -31Q548 -45 537 -58T521 -83T514 -103T513 -116Q513 -131 518 -141T532 -157Q543 -166 558 -170T588 -174Q605 -174 616 -171T635 -165L653 -203Q642 -208 616 -216T557 -225Q500 -225 470 -199T439 -133Q439 -97 456 -72T493 -30Q517 -12 548 0L477 209H189Z"/>
<glyph unicode="ą" horiz-adv-x="556" d="M62 364Q63 411 79 444T123 498T190 528T278 538Q288 538 306 537T347 530T391 516T431 490T460 449T472 392V91Q472 60 501 60Q507 60 514 61T530 64V-4Q518 -9 506 -16T483 -31Q463 -45 452 -58T436 -83T429 -103T428 -116Q428 -131 433 -141T447 -157Q458 -166 473 -170T503 -174Q520 -174 531 -171T550 -165L568 -203Q557 -208 531 -216T472 -225Q415 -225 385 -199T354 -133Q354 -105 364 -84T389 -47T420 -21T447 -6Q440 -5 435 -3Q417 4 408 15T394 40T389 70Q376 56 360 41T320 14T268 -7T200 -15Q164 -15 134 -4T82 27T48 74T36 136Q36 152 40 177T61 228T108 273T195 300L340 318Q348 319 356 321T371 330T382 348T386 380Q386 465 263 465Q225 465 203 455T168 430T150 397T143 364H62ZM384 267Q379 263 371 259T347 252T306 244T239 234Q223 232 204 228T167 214T139 190T127 149Q127 106 149 82T222 58Q253 58 282 67T333 93T370 132T384 181V267Z"/>
<glyph unicode="Ć" horiz-adv-x="722" d="M580 502Q570 549 547 578T496 624T436 645T379 651Q330 651 288 633T213 580T163 491T144 366Q144 303 156 248T196 153T269 90T382 67Q406 67 436 74T495 103T550 162T587 264H681Q671 196 648 149T594 71T529 21T464 -6T406 -17T367 -19Q306 -19 248 2T145 68T72 186T44 363Q44 446 67 514T133 632T238 709T379 737Q448 737 501 717T590 665T648 590T674 502H580ZM431 788H364L453 929H561L431 788Z"/>
<glyph unicode="ć" horiz-adv-x="500" d="M282 593H215L304 734H412L282 593ZM392 347Q384 400 354 429T268 459Q227 459 200 442T155 396T131 332T124 262Q124 228 129 193T150 128T194 80T267 61Q312 61 346 93T392 185H477Q474 154 462 119T425 54T361 5T264 -15Q209 -15 166 4T92 59T46 142T30 247Q30 308 45 361T90 453T168 515T281 538Q332 538 368 521T427 477T462 415T477 347H392Z"/>
<glyph unicode="Ĉ" horiz-adv-x="722" d="M580 502Q570 549 547 578T496 624T436 645T379 651Q330 651 288 633T213 580T163 491T144 366Q144 303 156 248T196 153T269 90T382 67Q406 67 436 74T495 103T550 162T587 264H681Q671 196 648 149T594 71T529 21T464 -6T406 -17T367 -19Q306 -19 248 2T145 68T72 186T44 363Q44 446 67 514T133 632T238 709T379 737Q448 737 501 717T590 665T648 590T674 502H580ZM314 788H235L334 929H427L526 788H446L380 881L314 788Z"/>
<glyph unicode="ĉ" horiz-adv-x="500" d="M392 347Q384 400 354 429T268 459Q227 459 200 442T155 396T131 332T124 262Q124 228 129 193T150 128T194 80T267 61Q312 61 346 93T392 185H477Q474 154 462 119T425 54T361 5T264 -15Q209 -15 166 4T92 59T46 142T30 247Q30 308 45 361T90 453T168 515T281 538Q332 538 368 521T427 477T462 415T477 347H392ZM198 593H119L218 734H311L410 593H330L264 686L198 593Z"/>
<glyph unicode="Ċ" horiz-adv-x="722" d="M580 502Q570 549 547 578T496 624T436 645T379 651Q330 651 288 633T213 580T163 491T144 366Q144 303 156 248T196 153T269 90T382 67Q406 67 436 74T495 103T550 162T587 264H681Q671 196 648 149T594 71T529 21T464 -6T406 -17T367 -19Q306 -19 248 2T145 68T72 186T44 363Q44 446 67 514T133 632T238 709T379 737Q448 737 501 717T590 665T648 590T674 502H580ZM437 799H346V901H437V799Z"/>
<glyph unicode="ċ" horiz-adv-x="500" d="M392 347Q384 400 354 429T268 459Q227 459 200 442T155 396T131 332T124 262Q124 228 129 193T150 128T194 80T267 61Q312 61 346 93T392 185H477Q474 154 462 119T425 54T361 5T264 -15Q209 -15 166 4T92 59T46 142T30 247Q30 308 45 361T90 453T168 515T281 538Q332 538 368 521T427 477T462 415T477 347H392ZM313 604H222V706H313V604Z"/>
<glyph unicode="Č" horiz-adv-x="722" d="M580 502Q570 549 547 578T496 624T436 645T379 651Q330 651 288 633T213 580T163 491T144 366Q144 303 156 248T196 153T269 90T382 67Q406 67 436 74T495 103T550 162T587 264H681Q671 196 648 149T594 71T529 21T464 -6T406 -17T367 -19Q306 -19 248 2T145 68T72 186T44 363Q44 446 67 514T133 632T238 709T379 737Q448 737 501 717T590 665T648 590T674 502H580ZM380 836L446 929H526L427 788H334L235 929H314L380 836Z"/>
<glyph unicode="č" horiz-adv-x="500" d="M392 347Q384 400 354 429T268 459Q227 459 200 442T155 396T131 332T124 262Q124 228 129 193T150 128T194 80T267 61Q312 61 346 93T392 185H477Q474 154 462 119T425 54T361 5T264 -15Q209 -15 166 4T92 59T46 142T30 247Q30 308 45 361T90 453T168 515T281 538Q332 538 368 521T427 477T462 415T477 347H392ZM265 641L331 734H411L312 593H219L120 734H199L265 641Z"/>
<glyph unicode="Ď" horiz-adv-x="722" d="M178 83H366Q461 83 517 154T574 363Q574 499 516 567T359 635H178V83ZM81 718H372Q442 718 498 693T593 621T653 511T674 369Q674 309 660 244T610 124T515 35T368 0H81V718ZM332 836L398 929H478L379 788H286L187 929H266L332 836Z"/>
<glyph unicode="ď" horiz-adv-x="556" d="M126 263Q126 220 134 183T160 119T204 77T267 61Q288 61 313 69T359 97T395 151T410 237Q410 269 406 307T388 380T345 436T269 459Q218 459 190 438T147 387T129 322T126 263ZM499 0H416V72H414Q400 45 382 29T345 2T305 -11T265 -15Q198 -15 154 13T84 84T46 178T35 277Q35 332 49 379T92 462T160 518T253 538Q289 538 314 529T358 505T389 476T409 449H411V718H499V0ZM542 756H614V688Q614 653 605 633T583 601T559 586T542 581V613Q564 615 571 637T579 683H542V756Z"/>
<glyph unicode="Đ" horiz-adv-x="722" d="M0 412H81V718H372Q442 718 498 693T593 621T653 511T674 369Q674 354 672 321T660 246T631 162T577 82T492 23T368 0H81V356H0V412ZM370 356H178V83H366Q461 83 517 154T574 363Q574 499 516 567T359 635H178V412H370V356Z"/>
<glyph unicode="đ" horiz-adv-x="556" d="M238 639H411V718H499V639H555V588H499V0H416V72H414Q400 45 382 29T345 2T305 -11T265 -15Q198 -15 154 13T84 84T46 178T35 277Q35 332 49 379T92 462T160 518T253 538Q289 538 314 529T358 505T389 476T409 449H411V588H238V639ZM126 263Q126 220 134 183T160 119T204 77T267 61Q288 61 313 69T359 97T395 151T410 237Q410 269 406 307T388 380T345 436T269 459Q218 459 190 438T147 387T129 322T126 263Z"/>
<glyph unicode="Ē" horiz-adv-x="667" d="M616 0H86V718H609V632H183V412H576V326H183V86H616V0ZM506 825H193V882H506V825Z"/>
<glyph unicode="ē" horiz-adv-x="556" d="M425 303Q423 333 415 361T390 411T346 446T279 459Q249 459 223 446T177 412T146 362T134 303H425ZM509 164Q508 155 503 138T486 100T458 58T416 21Q407 15 396 9T368 -3T328 -11T274 -15Q219 -15 176 4T102 59T56 142T40 247Q40 308 55 361T100 453T178 515T291 538Q348 538 390 517T460 455T502 359T516 233H134Q134 151 172 106T286 61Q317 61 341 71T383 98T410 131T421 164H509ZM440 627H127V684H440V627Z"/>
<glyph unicode="Ĕ" horiz-adv-x="667" d="M616 0H86V718H609V632H183V412H576V326H183V86H616V0ZM507 928Q499 854 456 823T348 792Q298 792 270 808T226 847T205 892T199 928H248Q251 919 256 906T272 880Q283 867 303 858T356 849Q386 849 404 857T434 877T450 902T459 928H507Z"/>
<glyph unicode="ĕ" horiz-adv-x="556" d="M425 303Q423 333 415 361T390 411T346 446T279 459Q249 459 223 446T177 412T146 362T134 303H425ZM509 164Q508 155 503 138T486 100T458 58T416 21Q407 15 396 9T368 -3T328 -11T274 -15Q219 -15 176 4T102 59T56 142T40 247Q40 308 55 361T100 453T178 515T291 538Q348 538 390 517T460 455T502 359T516 233H134Q134 151 172 106T286 61Q317 61 341 71T383 98T410 131T421 164H509ZM440 731Q437 701 428 676T400 632T353 604T286 594Q247 594 219 604T173 632T145 675T132 731H180Q185 696 212 674T285 651Q330 651 357 673T392 731H440Z"/>
<glyph unicode="Ė" horiz-adv-x="667" d="M616 0H86V718H609V632H183V412H576V326H183V86H616V0ZM402 799H311V901H402V799Z"/>
<glyph unicode="ė" horiz-adv-x="556" d="M425 303Q423 333 415 361T390 411T346 446T279 459Q249 459 223 446T177 412T146 362T134 303H425ZM509 164Q508 155 503 138T486 100T458 58T416 21Q407 15 396 9T368 -3T328 -11T274 -15Q219 -15 176 4T102 59T56 142T40 247Q40 308 55 361T100 453T178 515T291 538Q348 538 390 517T460 455T502 359T516 233H134Q134 151 172 106T286 61Q317 61 341 71T383 98T410 131T421 164H509ZM327 604H236V706H327V604Z"/>
<glyph unicode="Ę" horiz-adv-x="667" d="M455 -157Q466 -166 481 -170T511 -174Q528 -174 539 -171T558 -165L576 -203Q565 -208 539 -216T480 -225Q423 -225 393 -199T362 -133Q362 -97 379 -72T416 -30Q440 -12 471 0H86V718H609V632H183V412H576V326H183V86H616V0H549Q529 -8 516 -15T491 -31Q471 -45 460 -58T444 -83T437 -103T436 -116Q436 -131 441 -141T455 -157Z"/>
<glyph unicode="ę" horiz-adv-x="556" d="M267 -157Q278 -166 293 -170T323 -174Q340 -174 351 -171T370 -165L388 -203Q377 -208 351 -216T292 -225Q235 -225 205 -199T174 -133Q174 -109 181 -90T201 -56T226 -31T252 -14Q210 -11 175 4Q132 24 102 59T56 142T40 247Q40 308 55 361T100 453T178 515T291 538Q348 538 390 517T460 455T502 359T516 233H134Q134 151 172 106T286 61Q317 61 341 71T383 98T410 131T421 164H509Q508 155 503 138T486 100T458 58T416 21Q407 15 396 9T367 -3Q353 -7 335 -10Q327 -15 319 -20T303 -31Q283 -45 272 -58T256 -83T249 -103T248 -116Q248 -131 253 -141T267 -157ZM425 303Q423 333 415 361T390 411T346 446T279 459Q249 459 223 446T177 412T146 362T134 303H425Z"/>
<glyph unicode="Ě" horiz-adv-x="667" d="M616 0H86V718H609V632H183V412H576V326H183V86H616V0ZM351 836L417 929H497L398 788H305L206 929H285L351 836Z"/>
<glyph unicode="ě" horiz-adv-x="556" d="M425 303Q423 333 415 361T390 411T346 446T279 459Q249 459 223 446T177 412T146 362T134 303H425ZM509 164Q508 155 503 138T486 100T458 58T416 21Q407 15 396 9T368 -3T328 -11T274 -15Q219 -15 176 4T102 59T56 142T40 247Q40 308 55 361T100 453T178 515T291 538Q348 538 390 517T460 455T502 359T516 233H134Q134 151 172 106T286 61Q317 61 341 71T383 98T410 131T421 164H509ZM285 641L351 734H431L332 593H239L140 734H219L285 641Z"/>
<glyph unicode="Ĝ" horiz-adv-x="778" d="M389 384H704V0H641L618 93Q581 42 518 12T381 -19Q335 -19 300 -12T239 8T194 34T161 62Q120 101 97 142T63 224T50 300T48 365Q48 431 68 497T130 616T236 703T388 737Q438 737 489 723T582 679T654 605T692 500H598Q586 547 562 576T508 622T446 645T383 651Q335 651 292 632T217 576T167 485T148 360Q148 305 158 252T196 157T269 90T387 64Q400 64 417 65T454 71T493 85T534 110Q581 147 597 195T613 301H389V384ZM325 788H246L345 929H438L537 788H457L391 881L325 788Z"/>
<glyph unicode="ĝ" horiz-adv-x="556" d="M231 593H152L251 734H344L443 593H363L297 686L231 593ZM499 43Q499 24 498 -2T490 -58T469 -117T427 -168T358 -205T256 -220Q233 -220 201 -215T139 -194T86 -147T56 -64H144Q150 -95 166 -112T201 -136T237 -145T262 -147Q317 -147 347 -129T391 -83T408 -25T411 30V59Q392 27 358 6T270 -15Q203 -15 159 13T89 84T51 178T40 277Q40 332 54 379T97 462T165 518T258 538Q294 538 320 528T364 504T395 474T416 446V523H499V43ZM131 263Q131 220 139 183T165 119T209 77T272 61Q293 61 318 69T364 97T400 151T415 237Q415 269 411 307T393 380T350 436T274 459Q223 459 195 438T152 387T134 322T131 263Z"/>
<glyph unicode="Ğ" horiz-adv-x="778" d="M389 384H704V0H641L618 93Q581 42 518 12T381 -19Q335 -19 300 -12T239 8T194 34T161 62Q120 101 97 142T63 224T50 300T48 365Q48 431 68 497T130 616T236 703T388 737Q438 737 489 723T582 679T654 605T692 500H598Q586 547 562 576T508 622T446 645T383 651Q335 651 292 632T217 576T167 485T148 360Q148 305 158 252T196 157T269 90T387 64Q400 64 417 65T454 71T493 85T534 110Q581 147 597 195T613 301H389V384ZM545 928Q537 854 494 823T386 792Q336 792 308 808T264 847T243 892T237 928H286Q289 919 294 906T310 880Q321 867 341 858T394 849Q424 849 442 857T472 877T488 902T497 928H545Z"/>
<glyph unicode="ğ" horiz-adv-x="556" d="M499 43Q499 24 498 -2T490 -58T469 -117T427 -168T358 -205T256 -220Q233 -220 201 -215T139 -194T86 -147T56 -64H144Q150 -95 166 -112T201 -136T237 -145T262 -147Q317 -147 347 -129T391 -83T408 -25T411 30V59Q392 27 358 6T270 -15Q203 -15 159 13T89 84T51 178T40 277Q40 332 54 379T97 462T165 518T258 538Q294 538 320 528T364 504T395 474T416 446V523H499V43ZM131 263Q131 220 139 183T165 119T209 77T272 61Q293 61 318 69T364 97T400 151T415 237Q415 269 411 307T393 380T350 436T274 459Q223 459 195 438T152 387T134 322T131 263ZM443 731Q440 701 431 676T403 632T356 604T289 594Q250 594 222 604T176 632T148 675T135 731H183Q188 696 215 674T288 651Q333 651 360 673T395 731H443Z"/>
<glyph unicode="Ġ" horiz-adv-x="778" d="M389 384H704V0H641L618 93Q581 42 518 12T381 -19Q335 -19 300 -12T239 8T194 34T161 62Q120 101 97 142T63 224T50 300T48 365Q48 431 68 497T130 616T236 703T388 737Q438 737 489 723T582 679T654 605T692 500H598Q586 547 562 576T508 622T446 645T383 651Q335 651 292 632T217 576T167 485T148 360Q148 305 158 252T196 157T269 90T387 64Q400 64 417 65T454 71T493 85T534 110Q581 147 597 195T613 301H389V384ZM437 799H346V901H437V799Z"/>
<glyph unicode="ġ" horiz-adv-x="556" d="M499 43Q499 24 498 -2T490 -58T469 -117T427 -168T358 -205T256 -220Q233 -220 201 -215T139 -194T86 -147T56 -64H144Q150 -95 166 -112T201 -136T237 -145T262 -147Q317 -147 347 -129T391 -83T408 -25T411 30V59Q392 27 358 6T270 -15Q203 -15 159 13T89 84T51 178T40 277Q40 332 54 379T97 462T165 518T258 538Q294 538 320 528T364 504T395 474T416 446V523H499V43ZM131 263Q131 220 139 183T165 119T209 77T272 61Q293 61 318 69T364 97T400 151T415 237Q415 269 411 307T393 380T350 436T274 459Q223 459 195 438T152 387T134 322T131 263ZM339 604H248V706H339V604Z"/>
<glyph unicode="Ģ" horiz-adv-x="778" d="M389 384H704V0H641L618 93Q581 42 518 12T381 -19Q335 -19 300 -12T239 8T194 34T161 62Q120 101 97 142T63 224T50 300T48 365Q48 431 68 497T130 616T236 703T388 737Q438 737 489 723T582 679T654 605T692 500H598Q586 547 562 576T508 622T446 645T383 651Q335 651 292 632T217 576T167 485T148 360Q148 305 158 252T196 157T269 90T387 64Q400 64 417 65T454 71T493 85T534 110Q581 147 597 195T613 301H389V384ZM344 -43H416V-111Q416 -146 407 -166T385 -198T361 -213T344 -218V-186Q366 -184 373 -162T381 -116H344V-43Z"/>
<glyph unicode="ģ" horiz-adv-x="556" d="M499 43Q499 24 498 -2T490 -58T469 -117T427 -168T358 -205T256 -220Q233 -220 201 -215T139 -194T86 -147T56 -64H144Q150 -95 166 -112T201 -136T237 -145T262 -147Q317 -147 347 -129T391 -83T408 -25T411 30V59Q392 27 358 6T270 -15Q203 -15 159 13T89 84T51 178T40 277Q40 332 54 379T97 462T165 518T258 538Q294 538 320 528T364 504T395 474T416 446V523H499V43ZM131 263Q131 220 139 183T165 119T209 77T272 61Q293 61 318 69T364 97T400 151T415 237Q415 269 411 307T393 380T350 436T274 459Q223 459 195 438T152 387T134 322T131 263ZM313 603H241V671Q241 706 250 726T272 758T296 773T313 778V746Q291 744 284 722T276 676H313V603Z"/>
<glyph unicode="Ĥ" horiz-adv-x="722" d="M549 718H646V0H549V335H174V0H77V718H174V421H549V718ZM295 788H216L315 929H408L507 788H427L361 881L295 788Z"/>
<glyph unicode="ĥ" horiz-adv-x="556" d="M491 0H403V342Q403 369 399 390T383 427T351 450T299 459Q272 459 246 451T199 422T166 368T153 285V0H65V718H153V453H155Q164 465 177 480T209 508T252 529T308 538Q338 538 370 531T430 503T474 448T491 356V0ZM169 757H90L189 898H282L381 757H301L235 850L169 757Z"/>
<glyph unicode="Ħ" horiz-adv-x="722" d="M549 596V718H646V0H549V335H174V0H77V718H174V596H549ZM549 526H174V421H549V526Z"/>
<glyph unicode="ħ" horiz-adv-x="556" d="M324 598H153V453H155Q164 465 177 480T209 508T252 529T308 538Q338 538 370 531T430 503T474 448T491 356V0H403V342Q403 369 399 390T383 427T351 450T299 459Q272 459 246 451T199 422T166 368T153 285V0H65V598H11V649H65V718H153V649H324V598Z"/>
<glyph unicode="Ĩ" horiz-adv-x="278" d="M188 0H91V718H188V0ZM312 917Q307 872 281 840T212 808Q198 808 186 811T153 821L127 830Q101 839 88 842T66 845Q46 845 36 833T19 801H-29Q-26 823 -19 842T0 876T31 899T75 908Q95 908 111 904T143 893L165 884Q179 878 192 875T212 871Q227 871 236 875T250 887T258 902T262 917H312Z"/>
<glyph unicode="ĩ" horiz-adv-x="278" d="M183 0H95V523H183V0ZM313 722Q308 677 282 645T213 613Q199 613 187 616T154 626L128 635Q102 644 89 647T67 650Q47 650 37 638T20 606H-28Q-25 628 -18 647T1 681T32 704T76 713Q96 713 112 709T144 698L166 689Q180 683 193 680T213 676Q228 676 237 680T251 692T259 707T263 722H313Z"/>
<glyph unicode="Ī" horiz-adv-x="278" d="M188 0H91V718H188V0ZM297 825H-16V882H297V825Z"/>
<glyph unicode="ī" horiz-adv-x="278" d="M183 0H95V523H183V0ZM299 627H-14V684H299V627Z"/>
<glyph unicode="Į" horiz-adv-x="278" d="M75 -157Q86 -166 101 -170T131 -174Q148 -174 159 -171T178 -165L196 -203Q185 -208 159 -216T100 -225Q43 -225 13 -199T-18 -133Q-18 -97 -1 -72T36 -30Q60 -12 91 0V718H188V0H167Q148 -8 135 -15T111 -31Q91 -45 80 -58T64 -83T57 -103T56 -116Q56 -131 61 -141T75 -157Z"/>
<glyph unicode="į" horiz-adv-x="222" d="M172 -203Q161 -208 135 -216T76 -225Q20 -225 -11 -199T-42 -133Q-42 -121 -38 -103T-23 -65T10 -28T67 0V523H155V0H142Q103 -21 84 -35T53 -64T38 -93T34 -128Q34 -145 40 -155T55 -170T73 -176T90 -178Q109 -178 122 -175T155 -163L172 -203ZM67 618V718H155V618H67Z"/>
<glyph unicode="İ" horiz-adv-x="278" d="M188 0H91V718H188V0ZM184 799H93V901H184V799Z"/>
<glyph unicode="ı" horiz-adv-x="278" d="M183 0H95V523H183V0Z"/>
<glyph unicode="Ĳ" horiz-adv-x="750" d="M188 0H91V718H188V0ZM358 231V181Q358 116 386 90T466 64Q500 64 522 73T557 99T575 139T581 188V718H678V194Q678 131 660 90T611 25T544 -9T471 -19Q408 -19 369 -1T307 45T276 104T267 160V231H358Z"/>
<glyph unicode="ĳ" horiz-adv-x="444" d="M67 618V718H155V618H67ZM155 0H67V523H155V0ZM376 618H288V718H376V618ZM376 -77Q376 -94 374 -117T358 -160T318 -195T242 -210Q224 -210 205 -207V-131H223Q242 -131 255 -130T275 -122T285 -102T288 -67V523H376V-77Z"/>
<glyph unicode="Ĵ" horiz-adv-x="500" d="M108 231V181Q108 116 136 90T216 64Q250 64 272 73T307 99T325 139T331 188V718H428V194Q428 131 410 90T361 25T294 -9T221 -19Q158 -19 119 -1T57 45T26 104T17 160V231H108ZM313 788H234L333 929H426L525 788H445L379 881L313 788Z"/>
<glyph unicode="ĵ" horiz-adv-x="222" d="M155 -77Q155 -94 153 -117T137 -160T97 -195T21 -210Q3 -210 -16 -207V-131H2Q21 -131 34 -130T54 -122T64 -102T67 -67V523H155V-77ZM48 593H-31L68 734H161L260 593H180L114 686L48 593Z"/>
<glyph unicode="Ķ" horiz-adv-x="667" d="M173 0H76V718H173V370L521 718H655L356 428L663 0H537L286 360L173 252V0ZM307 -43H379V-111Q379 -146 370 -166T348 -198T324 -213T307 -218V-186Q329 -184 336 -162T344 -116H307V-43Z"/>
<glyph unicode="ķ" horiz-adv-x="500" d="M501 0H388L225 264L152 198V0H67V718H152V302L377 523H489L289 328L501 0ZM227 -43H299V-111Q299 -146 290 -166T268 -198T244 -213T227 -218V-186Q249 -184 256 -162T264 -116H227V-43Z"/>
<glyph unicode="Ĺ" horiz-adv-x="556" d="M173 86H537V0H76V718H173V86ZM149 788H82L171 929H279L149 788Z"/>
<glyph unicode="ĺ" horiz-adv-x="222" d="M155 0H67V718H155V0ZM136 788H69L158 929H266L136 788Z"/>
<glyph unicode="Ļ" horiz-adv-x="556" d="M173 86H537V0H76V718H173V86ZM259 -43H331V-111Q331 -146 322 -166T300 -198T276 -213T259 -218V-186Q281 -184 288 -162T296 -116H259V-43Z"/>
<glyph unicode="ļ" horiz-adv-x="222" d="M155 0H67V718H155V0ZM77 -43H149V-111Q149 -146 140 -166T118 -198T94 -213T77 -218V-186Q99 -184 106 -162T114 -116H77V-43Z"/>
<glyph unicode="Ľ" horiz-adv-x="556" d="M173 86H537V0H76V718H173V86ZM267 756H339V688Q339 653 330 633T308 601T284 586T267 581V613Q289 615 296 637T304 683H267V756Z"/>
<glyph unicode="ľ" horiz-adv-x="222" d="M155 0H67V718H155V0ZM199 756H271V688Q271 653 262 633T240 601T216 586T199 581V613Q221 615 228 637T236 683H199V756Z"/>
<glyph unicode="Ŀ" horiz-adv-x="556" d="M173 86H537V0H76V718H173V86ZM438 350H347V452H438V350Z"/>
<glyph unicode="ŀ" horiz-adv-x="310" d="M155 0H67V718H155V0ZM311 327H220V430H311V327Z"/>
<glyph unicode="Ł" horiz-adv-x="556" d="M291 466L173 399V86H537V0H76V343L-6 297V354L76 400V718H173V456L291 523V466Z"/>
<glyph unicode="ł" horiz-adv-x="222" d="M232 427L150 381V0H62V332L-10 292V350L62 390V718H150V439L232 485V427Z"/>
<glyph unicode="Ń" horiz-adv-x="722" d="M552 718H646V0H537L172 580H170V0H76V718H191L550 138H552V718ZM379 788H312L401 929H509L379 788Z"/>
<glyph unicode="ń" horiz-adv-x="556" d="M491 0H403V322Q403 390 379 424T291 459Q272 459 248 452T203 426T168 372T153 285V0H65V523H148V449H150Q157 459 170 474T202 504T248 528T308 538Q338 538 370 531T430 503T474 448T491 356V0ZM296 593H229L318 734H426L296 593Z"/>
<glyph unicode="Ņ" horiz-adv-x="722" d="M552 718H646V0H537L172 580H170V0H76V718H191L550 138H552V718ZM314 -43H386V-111Q386 -146 377 -166T355 -198T331 -213T314 -218V-186Q336 -184 343 -162T351 -116H314V-43Z"/>
<glyph unicode="ņ" horiz-adv-x="556" d="M491 0H403V322Q403 390 379 424T291 459Q272 459 248 452T203 426T168 372T153 285V0H65V523H148V449H150Q157 459 170 474T202 504T248 528T308 538Q338 538 370 531T430 503T474 448T491 356V0ZM234 -43H306V-111Q306 -146 297 -166T275 -198T251 -213T234 -218V-186Q256 -184 263 -162T271 -116H234V-43Z"/>
<glyph unicode="Ň" horiz-adv-x="722" d="M552 718H646V0H537L172 580H170V0H76V718H191L550 138H552V718ZM363 836L429 929H509L410 788H317L218 929H297L363 836Z"/>
<glyph unicode="ň" horiz-adv-x="556" d="M491 0H403V322Q403 390 379 424T291 459Q272 459 248 452T203 426T168 372T153 285V0H65V523H148V449H150Q157 459 170 474T202 504T248 528T308 538Q338 538 370 531T430 503T474 448T491 356V0ZM282 641L348 734H428L329 593H236L137 734H216L282 641Z"/>
<glyph unicode="ŉ" horiz-adv-x="556" d="M491 0H403V322Q403 390 379 424T291 459Q272 459 248 452T203 426T168 372T153 285V0H65V523H148V449H150Q157 459 170 474T202 504T248 528T308 538Q338 538 370 531T430 503T474 448T491 356V0ZM39 756H111V688Q111 653 102 633T80 601T56 586T39 581V613Q61 615 68 637T76 683H39V756Z"/>
<glyph unicode="Ō" horiz-adv-x="778" d="M739 359Q739 320 732 277T708 192T665 112T599 45T508 -2T389 -19Q322 -19 270 -2T179 44T114 112T71 192T47 277T39 359Q39 398 46 441T70 526T113 606T179 673T270 720T389 737Q456 737 508 720T599 674T664 606T707 526T731 441T739 359ZM639 359Q639 422 622 475T573 568T494 629T389 651Q330 651 284 629T206 568T156 476T139 359Q139 296 156 243T205 150T284 89T389 67Q447 67 493 89T572 150T622 242T639 359ZM546 825H233V882H546V825Z"/>
<glyph unicode="ō" horiz-adv-x="556" d="M126 262Q126 236 132 202T154 136T201 84T278 62Q325 62 355 83T401 136T424 201T430 262Q430 288 424 322T402 388T355 440T278 462Q231 462 201 441T155 388T132 323T126 262ZM35 262Q35 313 49 362T94 451T169 514T278 538Q341 538 386 514T462 451T506 363T521 262Q521 211 507 162T462 73T387 10T278 -14Q215 -14 170 10T94 73T50 161T35 262ZM436 627H123V684H436V627Z"/>
<glyph unicode="Ŏ" horiz-adv-x="778" d="M739 359Q739 320 732 277T708 192T665 112T599 45T508 -2T389 -19Q322 -19 270 -2T179 44T114 112T71 192T47 277T39 359Q39 398 46 441T70 526T113 606T179 673T270 720T389 737Q456 737 508 720T599 674T664 606T707 526T731 441T739 359ZM639 359Q639 422 622 475T573 568T494 629T389 651Q330 651 284 629T206 568T156 476T139 359Q139 296 156 243T205 150T284 89T389 67Q447 67 493 89T572 150T622 242T639 359ZM544 928Q536 854 493 823T385 792Q335 792 307 808T263 847T242 892T236 928H285Q288 919 293 906T309 880Q320 867 340 858T393 849Q423 849 441 857T471 877T487 902T496 928H544Z"/>
<glyph unicode="ŏ" horiz-adv-x="556" d="M126 262Q126 236 132 202T154 136T201 84T278 62Q325 62 355 83T401 136T424 201T430 262Q430 288 424 322T402 388T355 440T278 462Q231 462 201 441T155 388T132 323T126 262ZM35 262Q35 313 49 362T94 451T169 514T278 538Q341 538 386 514T462 451T506 363T521 262Q521 211 507 162T462 73T387 10T278 -14Q215 -14 170 10T94 73T50 161T35 262ZM434 731Q431 701 422 676T394 632T347 604T280 594Q241 594 213 604T167 632T139 675T126 731H174Q179 696 206 674T279 651Q324 651 351 673T386 731H434Z"/>
<glyph unicode="Ő" horiz-adv-x="778" d="M739 359Q739 320 732 277T708 192T665 112T599 45T508 -2T389 -19Q322 -19 270 -2T179 44T114 112T71 192T47 277T39 359Q39 398 46 441T70 526T113 606T179 673T270 720T389 737Q456 737 508 720T599 674T664 606T707 526T731 441T739 359ZM639 359Q639 422 622 475T573 568T494 629T389 651Q330 651 284 629T206 568T156 476T139 359Q139 296 156 243T205 150T284 89T389 67Q447 67 493 89T572 150T622 242T639 359ZM522 788H455L544 929H653L522 788ZM342 788H275L364 929H473L342 788Z"/>
<glyph unicode="ő" horiz-adv-x="556" d="M126 262Q126 236 132 202T154 136T201 84T278 62Q325 62 355 83T401 136T424 201T430 262Q430 288 424 322T402 388T355 440T278 462Q231 462 201 441T155 388T132 323T126 262ZM35 262Q35 313 49 362T94 451T169 514T278 538Q341 538 386 514T462 451T506 363T521 262Q521 211 507 162T462 73T387 10T278 -14Q215 -14 170 10T94 73T50 161T35 262ZM379 593H312L401 734H510L379 593ZM199 593H132L221 734H330L199 593Z"/>
<glyph unicode="Œ" horiz-adv-x="1000" d="M523 718H963V632H614V412H947V326H614V86H965V0H522V75H520Q508 59 494 42T458 12T405 -10T329 -19Q258 -19 204 9T112 87T55 205T36 355Q36 390 41 432T60 516T95 598T152 669T233 718T343 737Q388 737 419 726T471 700T503 670T521 645H523V718ZM517 492Q517 529 504 559T468 610T414 642T344 654Q296 654 262 638T204 594T168 533T147 464T138 396T136 339Q136 252 161 189Q174 158 190 135T230 96T284 72T357 64Q381 64 409 73T461 101T501 153T517 230V492Z"/>
<glyph unicode="œ" horiz-adv-x="944" d="M126 262Q126 236 132 202T154 136T201 84T278 62Q325 62 355 83T401 136T424 201T430 262Q430 288 424 322T402 388T355 440T278 462Q231 462 201 441T155 388T132 323T126 262ZM895 164Q894 155 889 138T872 100T844 58T802 21Q793 15 782 9T754 -3T714 -11T660 -15Q604 -15 554 8T466 86Q449 53 425 33T374 3T324 -11T284 -14H278Q215 -14 170 10T94 73T50 161T35 262Q35 313 49 362T94 451T169 514T278 538Q341 537 391 512T474 432Q511 489 559 513T677 538Q734 538 776 517T846 455T888 359T902 233H519Q519 151 557 106T672 61Q703 61 727 71T769 98T796 131T807 164H895ZM811 303Q809 333 801 361T776 411T732 446T665 459Q635 459 608 446T562 412T531 362T519 303H811Z"/>
<glyph unicode="Ŕ" horiz-adv-x="722" d="M185 391H410Q437 391 463 395T509 413T543 451T556 515Q556 557 543 581T510 617T468 632T427 635H185V391ZM185 0H88V718H420Q464 718 506 709T582 679T635 620T656 525Q656 485 647 457T624 410T591 377T556 353Q571 347 586 339T613 317T632 279T642 218L648 88Q648 73 649 63T655 44T666 29T684 16V0H565Q560 16 557 42T551 96T549 146T548 180Q548 202 545 225T528 266T489 296T420 308H185V0ZM370 788H303L392 929H500L370 788Z"/>
<glyph unicode="ŕ" horiz-adv-x="333" d="M165 0H77V523H160V436H162Q188 482 223 510T309 538Q317 538 322 538T332 535V444H299Q268 444 244 433T202 403T175 358T165 304V0ZM198 593H131L220 734H328L198 593Z"/>
<glyph unicode="Ŗ" horiz-adv-x="722" d="M185 391H410Q437 391 463 395T509 413T543 451T556 515Q556 557 543 581T510 617T468 632T427 635H185V391ZM185 0H88V718H420Q464 718 506 709T582 679T635 620T656 525Q656 485 647 457T624 410T591 377T556 353Q571 347 586 339T613 317T632 279T642 218L648 88Q648 73 649 63T655 44T666 29T684 16V0H565Q560 16 557 42T551 96T549 146T548 180Q548 202 545 225T528 266T489 296T420 308H185V0ZM341 -43H413V-111Q413 -146 404 -166T382 -198T358 -213T341 -218V-186Q363 -184 370 -162T378 -116H341V-43Z"/>
<glyph unicode="ŗ" horiz-adv-x="333" d="M165 0H77V523H160V436H162Q188 482 223 510T309 538Q317 538 322 538T332 535V444H299Q268 444 244 433T202 403T175 358T165 304V0ZM87 -43H159V-111Q159 -146 150 -166T128 -198T104 -213T87 -218V-186Q109 -184 116 -162T124 -116H87V-43Z"/>
<glyph unicode="Ř" horiz-adv-x="722" d="M185 391H410Q437 391 463 395T509 413T543 451T556 515Q556 557 543 581T510 617T468 632T427 635H185V391ZM185 0H88V718H420Q464 718 506 709T582 679T635 620T656 525Q656 485 647 457T624 410T591 377T556 353Q571 347 586 339T613 317T632 279T642 218L648 88Q648 73 649 63T655 44T666 29T684 16V0H565Q560 16 557 42T551 96T549 146T548 180Q548 202 545 225T528 266T489 296T420 308H185V0ZM362 836L428 929H508L409 788H316L217 929H296L362 836Z"/>
<glyph unicode="ř" horiz-adv-x="333" d="M165 0H77V523H160V436H162Q188 482 223 510T309 538Q317 538 322 538T332 535V444H299Q268 444 244 433T202 403T175 358T165 304V0ZM200 641L266 734H346L247 593H154L55 734H134L200 641Z"/>
<glyph unicode="Ś" horiz-adv-x="667" d="M509 508Q507 550 491 578T449 623T392 647T331 654Q308 654 280 650T226 632T184 594T167 528Q167 505 174 490T194 464T221 447T252 437L457 390Q492 382 522 367T573 329T607 273T620 198Q620 134 594 92T526 26T435 -9T339 -19Q289 -19 254 -13T193 4T151 27T122 50Q76 92 63 136T49 232H140Q140 183 158 151T204 100T268 72T338 64Q364 64 397 68T458 86T506 122T526 185Q526 213 519 232T494 266T447 290T373 312L226 346Q208 350 182 359T132 388T91 437T73 515Q73 557 87 597T131 668T208 718T320 737Q414 737 469 713T552 653T589 578T600 508H509ZM355 788H288L377 929H485L355 788Z"/>
<glyph unicode="ś" horiz-adv-x="500" d="M362 374Q362 386 358 401T341 430T304 453T238 462Q228 462 211 460T176 450T147 427T134 388Q134 372 139 362T156 344T185 330T229 318L317 296Q399 276 431 244T464 158Q464 117 448 85T405 31T339 -3T257 -15Q205 -15 169 -6T108 18T68 53T46 92T36 132T32 168H117Q118 153 122 134T141 99T182 72T256 61Q280 61 301 66T339 81T366 106T376 144Q376 175 352 190T272 219L170 244Q115 258 82 287T49 371Q49 414 65 445T109 497T172 528T247 538Q317 538 357 516T417 466T442 411T447 374H362ZM269 593H202L291 734H399L269 593Z"/>
<glyph unicode="Ŝ" horiz-adv-x="667" d="M509 508Q507 550 491 578T449 623T392 647T331 654Q308 654 280 650T226 632T184 594T167 528Q167 505 174 490T194 464T221 447T252 437L457 390Q492 382 522 367T573 329T607 273T620 198Q620 134 594 92T526 26T435 -9T339 -19Q289 -19 254 -13T193 4T151 27T122 50Q76 92 63 136T49 232H140Q140 183 158 151T204 100T268 72T338 64Q364 64 397 68T458 86T506 122T526 185Q526 213 519 232T494 266T447 290T373 312L226 346Q208 350 182 359T132 388T91 437T73 515Q73 557 87 597T131 668T208 718T320 737Q414 737 469 713T552 653T589 578T600 508H509ZM279 788H200L299 929H392L491 788H411L345 881L279 788Z"/>
<glyph unicode="ŝ" horiz-adv-x="500" d="M362 374Q362 386 358 401T341 430T304 453T238 462Q228 462 211 460T176 450T147 427T134 388Q134 372 139 362T156 344T185 330T229 318L317 296Q399 276 431 244T464 158Q464 117 448 85T405 31T339 -3T257 -15Q205 -15 169 -6T108 18T68 53T46 92T36 132T32 168H117Q118 153 122 134T141 99T182 72T256 61Q280 61 301 66T339 81T366 106T376 144Q376 175 352 190T272 219L170 244Q115 258 82 287T49 371Q49 414 65 445T109 497T172 528T247 538Q317 538 357 516T417 466T442 411T447 374H362ZM191 593H112L211 734H304L403 593H323L257 686L191 593Z"/>
<glyph unicode="Ş" horiz-adv-x="667" d="M509 508Q507 550 491 578T449 623T392 647T331 654Q308 654 280 650T226 632T184 594T167 528Q167 505 174 490T194 464T221 447T252 437L457 390Q492 382 522 367T573 329T607 273T620 198Q620 134 594 92T526 26T434 -9Q395 -17 358 -18L326 -62Q334 -60 340 -59T357 -58Q381 -58 397 -65T423 -83T437 -108T441 -133Q441 -172 410 -198T323 -225Q295 -225 271 -218T227 -203L244 -163Q263 -171 276 -174T309 -178Q316 -178 325 -177T344 -171T359 -158T365 -136Q365 -124 360 -117T347 -105T331 -99T317 -97Q310 -97 302 -98T278 -105L261 -86L311 -18Q278 -17 253 -12Q218 -6 193 4T151 27T122 50Q76 92 63 136T49 232H140Q140 183 158 151T204 100T268 72T338 64Q364 64 397 68T458 86T506 122T526 185Q526 213 519 232T494 266T447 290T373 312L226 346Q208 350 182 359T132 388T91 437T73 515Q73 557 87 597T131 668T208 718T320 737Q414 737 469 713T552 653T589 578T600 508H509Z"/>
<glyph unicode="ş" horiz-adv-x="500" d="M362 374Q362 386 358 401T341 430T304 453T238 462Q228 462 211 460T176 450T147 427T134 388Q134 372 139 362T156 344T185 330T229 318L317 296Q399 276 431 244T464 158Q464 117 448 85T405 31T339 -3Q309 -12 276 -14L241 -62Q249 -60 255 -59T272 -58Q296 -58 312 -65T338 -83T352 -108T356 -133Q356 -172 325 -198T238 -225Q210 -225 186 -218T142 -203L159 -163Q178 -171 191 -174T224 -178Q231 -178 240 -177T259 -171T274 -158T280 -136Q280 -124 275 -117T262 -105T246 -99T232 -97Q225 -97 217 -98T193 -105L176 -86L229 -14Q195 -12 168 -6Q132 3 108 18T68 53T46 92T36 132T32 168H117Q118 153 122 134T141 99T182 72T256 61Q280 61 301 66T339 81T366 106T376 144Q376 175 352 190T272 219L170 244Q115 258 82 287T49 371Q49 414 65 445T109 497T172 528T247 538Q317 538 357 516T417 466T442 411T447 374H362Z"/>
<glyph unicode="Š" horiz-adv-x="667" d="M509 508Q507 550 491 578T449 623T392 647T331 654Q308 654 280 650T226 632T184 594T167 528Q167 505 174 490T194 464T221 447T252 437L457 390Q492 382 522 367T573 329T607 273T620 198Q620 134 594 92T526 26T435 -9T339 -19Q289 -19 254 -13T193 4T151 27T122 50Q76 92 63 136T49 232H140Q140 183 158 151T204 100T268 72T338 64Q364 64 397 68T458 86T506 122T526 185Q526 213 519 232T494 266T447 290T373 312L226 346Q208 350 182 359T132 388T91 437T73 515Q73 557 87 597T131 668T208 718T320 737Q414 737 469 713T552 653T589 578T600 508H509ZM333 836L399 929H479L380 788H287L188 929H267L333 836Z"/>
<glyph unicode="š" horiz-adv-x="500" d="M362 374Q362 386 358 401T341 430T304 453T238 462Q228 462 211 460T176 450T147 427T134 388Q134 372 139 362T156 344T185 330T229 318L317 296Q399 276 431 244T464 158Q464 117 448 85T405 31T339 -3T257 -15Q205 -15 169 -6T108 18T68 53T46 92T36 132T32 168H117Q118 153 122 134T141 99T182 72T256 61Q280 61 301 66T339 81T366 106T376 144Q376 175 352 190T272 219L170 244Q115 258 82 287T49 371Q49 414 65 445T109 497T172 528T247 538Q317 538 357 516T417 466T442 411T447 374H362ZM250 641L316 734H396L297 593H204L105 734H184L250 641Z"/>
<glyph unicode="Ţ" horiz-adv-x="611" d="M14 718H597V632H354V0H257V632H14V718ZM269 -43H341V-111Q341 -146 332 -166T310 -198T286 -213T269 -218V-186Q291 -184 298 -162T306 -116H269V-43Z"/>
<glyph unicode="ţ" horiz-adv-x="278" d="M173 450V110Q173 95 178 87T192 74T210 70T226 69H257V0Q233 -2 216 -4T191 -7Q158 -7 138 1T106 25T90 60T85 105V450H14V523H85V669H173V523H257V450H173ZM126 -43H198V-111Q198 -146 189 -166T167 -198T143 -213T126 -218V-186Q148 -184 155 -162T163 -116H126V-43Z"/>
<glyph unicode="Ť" horiz-adv-x="611" d="M14 718H597V632H354V0H257V632H14V718ZM305 836L371 929H451L352 788H259L160 929H239L305 836Z"/>
<glyph unicode="ť" horiz-adv-x="278" d="M173 450V110Q173 95 178 87T192 74T210 70T226 69H257V0Q233 -2 216 -4T191 -7Q158 -7 138 1T106 25T90 60T85 105V450H14V523H85V669H173V523H257V450H173ZM215 756H287V688Q287 653 278 633T256 601T232 586T215 581V613Q237 615 244 637T252 683H215V756Z"/>
<glyph unicode="Ŧ" horiz-adv-x="611" d="M526 432H354V0H257V432H85V488H257V632H14V718H597V632H354V488H526V432Z"/>
<glyph unicode="ŧ" horiz-adv-x="278" d="M241 280H173V110Q173 95 178 87T192 74T210 70T226 69H257V0Q233 -2 216 -4T191 -7Q158 -7 138 1T106 25T90 60T85 105V280H25V331H85V450H14V523H85V669H173V523H257V450H173V331H241V280Z"/>
<glyph unicode="Ũ" horiz-adv-x="722" d="M644 718V252Q644 197 627 148T574 61T484 3T355 -19Q283 -19 231 2T145 60T95 142T79 239V718H176V266Q176 207 192 169T234 108T292 76T358 67Q391 67 425 76T486 107T530 167T547 264V718H644ZM540 917Q535 872 509 840T440 808Q426 808 414 811T381 821L355 830Q329 839 316 842T294 845Q274 845 264 833T247 801H199Q202 823 209 842T228 876T259 899T303 908Q323 908 339 904T371 893L393 884Q407 878 420 875T440 871Q455 871 464 875T478 887T486 902T490 917H540Z"/>
<glyph unicode="ũ" horiz-adv-x="556" d="M406 0V76L404 78Q376 32 339 9T238 -15Q209 -15 179 -8T124 19T84 69T68 147V523H156V176Q156 144 164 122T185 87T217 67T257 61Q299 61 326 77T370 119T394 175T401 235V523H489V0H406ZM460 722Q455 677 429 645T360 613Q346 613 334 616T301 626L275 635Q249 644 236 647T214 650Q194 650 184 638T167 606H119Q122 628 129 647T148 681T179 704T223 713Q243 713 259 709T291 698L313 689Q327 683 340 680T360 676Q375 676 384 680T398 692T406 707T410 722H460Z"/>
<glyph unicode="Ū" horiz-adv-x="722" d="M644 718V252Q644 197 627 148T574 61T484 3T355 -19Q283 -19 231 2T145 60T95 142T79 239V718H176V266Q176 207 192 169T234 108T292 76T358 67Q391 67 425 76T486 107T530 167T547 264V718H644ZM521 825H208V882H521V825Z"/>
<glyph unicode="ū" horiz-adv-x="556" d="M406 0V76L404 78Q376 32 339 9T238 -15Q209 -15 179 -8T124 19T84 69T68 147V523H156V176Q156 144 164 122T185 87T217 67T257 61Q299 61 326 77T370 119T394 175T401 235V523H489V0H406ZM434 627H121V684H434V627Z"/>
<glyph unicode="Ŭ" horiz-adv-x="722" d="M644 718V252Q644 197 627 148T574 61T484 3T355 -19Q283 -19 231 2T145 60T95 142T79 239V718H176V266Q176 207 192 169T234 108T292 76T358 67Q391 67 425 76T486 107T530 167T547 264V718H644ZM519 928Q511 854 468 823T360 792Q310 792 282 808T238 847T217 892T211 928H260Q263 919 268 906T284 880Q295 867 315 858T368 849Q398 849 416 857T446 877T462 902T471 928H519Z"/>
<glyph unicode="ŭ" horiz-adv-x="556" d="M406 0V76L404 78Q376 32 339 9T238 -15Q209 -15 179 -8T124 19T84 69T68 147V523H156V176Q156 144 164 122T185 87T217 67T257 61Q299 61 326 77T370 119T394 175T401 235V523H489V0H406ZM434 731Q431 701 422 676T394 632T347 604T280 594Q241 594 213 604T167 632T139 675T126 731H174Q179 696 206 674T279 651Q324 651 351 673T386 731H434Z"/>
<glyph unicode="Ů" horiz-adv-x="722" d="M644 718V252Q644 197 627 148T574 61T484 3T355 -19Q283 -19 231 2T145 60T95 142T79 239V718H176V266Q176 207 192 169T234 108T292 76T358 67Q391 67 425 76T486 107T530 167T547 264V718H644ZM309 839Q309 817 324 802T361 787Q383 787 398 802T413 839Q413 861 398 876T361 891Q339 891 324 876T309 839ZM361 931Q401 931 427 905T453 839Q453 799 427 773T361 747Q321 747 295 773T269 839Q269 879 295 905T361 931Z"/>
<glyph unicode="ů" horiz-adv-x="556" d="M406 0V76L404 78Q376 32 339 9T238 -15Q209 -15 179 -8T124 19T84 69T68 147V523H156V176Q156 144 164 122T185 87T217 67T257 61Q299 61 326 77T370 119T394 175T401 235V523H489V0H406ZM224 664Q224 642 239 627T276 612Q298 612 313 627T328 664Q328 686 313 701T276 716Q254 716 239 701T224 664ZM276 756Q316 756 342 730T368 664Q368 624 342 598T276 572Q236 572 210 598T184 664Q184 704 210 730T276 756Z"/>
<glyph unicode="Ű" horiz-adv-x="722" d="M644 718V252Q644 197 627 148T574 61T484 3T355 -19Q283 -19 231 2T145 60T95 142T79 239V718H176V266Q176 207 192 169T234 108T292 76T358 67Q391 67 425 76T486 107T530 167T547 264V718H644ZM483 788H416L505 929H614L483 788ZM303 788H236L325 929H434L303 788Z"/>
<glyph unicode="ű" horiz-adv-x="556" d="M406 0V76L404 78Q376 32 339 9T238 -15Q209 -15 179 -8T124 19T84 69T68 147V523H156V176Q156 144 164 122T185 87T217 67T257 61Q299 61 326 77T370 119T394 175T401 235V523H489V0H406ZM370 593H303L392 734H501L370 593ZM190 593H123L212 734H321L190 593Z"/>
<glyph unicode="Ų" horiz-adv-x="722" d="M352 -157Q363 -166 378 -170T408 -174Q425 -174 436 -171T455 -165L473 -203Q462 -208 436 -216T377 -225Q320 -225 290 -199T259 -133Q259 -110 265 -92T282 -60T305 -36T330 -18Q274 -15 230 2Q178 24 145 60T95 142T79 239V718H176V266Q176 207 192 169T234 108T292 76T358 67Q391 67 425 76T486 107T530 167T547 264V718H644V252Q644 197 627 148T574 61T483 2Q451 -10 411 -15Q405 -19 399 -23T388 -31Q368 -45 357 -58T341 -83T334 -103T333 -116Q333 -131 338 -141T352 -157Z"/>
<glyph unicode="ų" horiz-adv-x="556" d="M390 -157Q401 -166 416 -170T446 -174Q463 -174 474 -171T493 -165L511 -203Q500 -208 474 -216T415 -225Q358 -225 328 -199T297 -133Q297 -97 314 -72T351 -30Q375 -12 406 0V76L404 78Q376 32 339 9T238 -15Q209 -15 179 -8T124 19T84 69T68 147V523H156V176Q156 144 164 122T185 87T217 67T257 61Q299 61 326 77T370 119T394 175T401 235V523H489V0H482Q463 -8 450 -15T426 -31Q406 -45 395 -58T379 -83T372 -103T371 -116Q371 -131 376 -141T390 -157Z"/>
<glyph unicode="Ŵ" horiz-adv-x="944" d="M305 0H203L16 718H121L255 134H257L418 718H524L685 134H687L821 718H928L739 0H637L473 595H471L305 0ZM406 788H327L426 929H519L618 788H538L472 881L406 788Z"/>
<glyph unicode="ŵ" horiz-adv-x="722" d="M256 0H165L14 523H110L210 112H212L313 523H411L513 112H515L621 523H709L557 0H466L360 405H358L256 0ZM295 593H216L315 734H408L507 593H427L361 686L295 593Z"/>
<glyph unicode="Ŷ" horiz-adv-x="667" d="M382 0H285V289L14 718H127L333 373L539 718H653L382 289V0ZM267 788H188L287 929H380L479 788H399L333 881L267 788Z"/>
<glyph unicode="ŷ" horiz-adv-x="500" d="M392 523H489Q443 394 398 267T301 10Q270 -70 250 -114T210 -181T164 -209T96 -214Q86 -214 78 -212T59 -206V-126Q67 -129 80 -132T112 -135Q129 -135 140 -132T160 -115T179 -79T205 -14L11 523H111L250 97H252L392 523ZM184 593H105L204 734H297L396 593H316L250 686L184 593Z"/>
<glyph unicode="Ÿ" horiz-adv-x="667" d="M382 0H285V289L14 718H127L333 373L539 718H653L382 289V0ZM460 799H369V901H460V799ZM298 799H207V901H298V799Z"/>
<glyph unicode="Ź" horiz-adv-x="611" d="M588 0H23V81L463 632H56V718H588V634L146 86H588V0ZM328 788H261L350 929H458L328 788Z"/>
<glyph unicode="ź" horiz-adv-x="500" d="M148 73H469V0H31V69L346 450H55V523H460V451L148 73ZM262 593H195L284 734H392L262 593Z"/>
<glyph unicode="Ż" horiz-adv-x="611" d="M588 0H23V81L463 632H56V718H588V634L146 86H588V0ZM363 799H272V901H363V799Z"/>
<glyph unicode="ż" horiz-adv-x="500" d="M148 73H469V0H31V69L346 450H55V523H460V451L148 73ZM303 604H212V706H303V604Z"/>
<glyph unicode="Ž" horiz-adv-x="611" d="M588 0H23V81L463 632H56V718H588V634L146 86H588V0ZM330 836L396 929H476L377 788H284L185 929H264L330 836Z"/>
<glyph unicode="ž" horiz-adv-x="500" d="M148 73H469V0H31V69L346 450H55V523H460V451L148 73ZM250 641L316 734H396L297 593H204L105 734H184L250 641Z"/>
<glyph unicode="ƒ" horiz-adv-x="556" d="M486 644Q469 651 456 656T429 661Q409 661 395 651T372 627T357 595T348 564L328 461H442V391H315L255 64Q241 -12 221 -64T175 -147T118 -193T51 -207Q25 -207 13 -204T-11 -195L4 -114Q15 -119 27 -123T55 -128Q80 -128 96 -116T124 -82T143 -27T159 46L223 391H114V461H237L265 585Q271 612 284 639T317 687T363 723T423 737Q454 737 469 733T501 722L486 644Z"/>
<glyph unicode="Ș" horiz-adv-x="667" d="M509 508Q507 550 491 578T449 623T392 647T331 654Q308 654 280 650T226 632T184 594T167 528Q167 505 174 490T194 464T221 447T252 437L457 390Q492 382 522 367T573 329T607 273T620 198Q620 134 594 92T526 26T435 -9T339 -19Q289 -19 254 -13T193 4T151 27T122 50Q76 92 63 136T49 232H140Q140 183 158 151T204 100T268 72T338 64Q364 64 397 68T458 86T506 122T526 185Q526 213 519 232T494 266T447 290T373 312L226 346Q208 350 182 359T132 388T91 437T73 515Q73 557 87 597T131 668T208 718T320 737Q414 737 469 713T552 653T589 578T600 508H509ZM301 -43H373V-111Q373 -146 364 -166T342 -198T318 -213T301 -218V-186Q323 -184 330 -162T338 -116H301V-43Z"/>
<glyph unicode="ș" horiz-adv-x="500" d="M362 374Q362 386 358 401T341 430T304 453T238 462Q228 462 211 460T176 450T147 427T134 388Q134 372 139 362T156 344T185 330T229 318L317 296Q399 276 431 244T464 158Q464 117 448 85T405 31T339 -3T257 -15Q205 -15 169 -6T108 18T68 53T46 92T36 132T32 168H117Q118 153 122 134T141 99T182 72T256 61Q280 61 301 66T339 81T366 106T376 144Q376 175 352 190T272 219L170 244Q115 258 82 287T49 371Q49 414 65 445T109 497T172 528T247 538Q317 538 357 516T417 466T442 411T447 374H362ZM209 -43H281V-111Q281 -146 272 -166T250 -198T226 -213T209 -218V-186Q231 -184 238 -162T246 -116H209V-43Z"/>
<glyph unicode="Ț" horiz-adv-x="611" d="M14 718H597V632H354V0H257V632H14V718ZM269 -43H341V-111Q341 -146 332 -166T310 -198T286 -213T269 -218V-186Q291 -184 298 -162T306 -116H269V-43Z"/>
<glyph unicode="ț" horiz-adv-x="278" d="M173 450V110Q173 95 178 87T192 74T210 70T226 69H257V0Q233 -2 216 -4T191 -7Q158 -7 138 1T106 25T90 60T85 105V450H14V523H85V669H173V523H257V450H173ZM126 -43H198V-111Q198 -146 189 -166T167 -198T143 -213T126 -218V-186Q148 -184 155 -162T163 -116H126V-43Z"/>
<glyph unicode="ȷ" horiz-adv-x="222" d="M155 -77Q155 -94 153 -117T137 -160T97 -195T21 -210Q3 -210 -16 -207V-131H2Q21 -131 34 -130T54 -122T64 -102T67 -67V523H155V-77Z"/>
<glyph unicode="ˆ" horiz-adv-x="333" d="M100 593H21L120 734H213L312 593H232L166 686L100 593Z"/>
<glyph unicode="ˇ" horiz-adv-x="333" d="M166 641L232 734H312L213 593H120L21 734H100L166 641Z"/>
<glyph unicode="ˉ" horiz-adv-x="333" d="M323 627H10V684H323V627Z"/>
<glyph unicode="˘" horiz-adv-x="333" d="M321 731Q318 701 309 676T281 632T234 604T167 594Q128 594 100 604T54 632T26 675T13 731H61Q66 696 93 674T166 651Q211 651 238 673T273 731H321Z"/>
<glyph unicode="˙" horiz-adv-x="333" d="M212 604H121V706H212V604Z"/>
<glyph unicode="˚" horiz-adv-x="333" d="M115 664Q115 642 130 627T167 612Q189 612 204 627T219 664Q219 686 204 701T167 716Q145 716 130 701T115 664ZM167 756Q207 756 233 730T259 664Q259 624 233 598T167 572Q127 572 101 598T75 664Q75 704 101 730T167 756Z"/>
<glyph unicode="˛" horiz-adv-x="333" d="M166 -157Q177 -166 192 -170T222 -174Q239 -174 250 -171T269 -165L287 -203Q276 -208 250 -216T191 -225Q134 -225 104 -199T73 -133Q73 -97 90 -72T127 -30Q151 -12 182 0H249V-4Q237 -9 225 -16T202 -31Q182 -45 171 -58T155 -83T148 -103T147 -116Q147 -131 152 -141T166 -157Z"/>
<glyph unicode="˜" horiz-adv-x="333" d="M337 722Q332 677 306 645T237 613Q223 613 211 616T178 626L152 635Q126 644 113 647T91 650Q71 650 61 638T44 606H-4Q-1 628 6 647T25 681T56 704T100 713Q120 713 136 709T168 698L190 689Q204 683 217 680T237 676Q252 676 261 680T275 692T283 707T287 722H337Z"/>
<glyph unicode="˝" horiz-adv-x="333" d="M278 593H211L300 734H409L278 593ZM98 593H31L120 734H229L98 593Z"/>
<glyph unicode="Δ" horiz-adv-x="678" d="M11 0L287 712H382L667 0H11ZM333 613L134 83H540L333 613Z"/>
<glyph unicode="Ω" horiz-adv-x="752" d="M429 0V185Q471 193 503 213T556 262T589 328T600 406Q600 455 583 497T535 571T462 620T371 638Q321 638 279 620T206 571T158 497T140 405Q140 322 183 262T309 185V0H46V77H236V139Q190 152 155 178T95 241T59 320T46 410Q46 478 71 535T141 633T245 698T370 721Q437 721 495 699T598 635T667 537T693 412Q693 364 681 321T645 241T586 179T503 139V77H693V0H429Z"/>
<glyph unicode="μ" horiz-adv-x="578" d="M559 -3Q559 -3 541 -5T502 -7Q456 -7 435 11T405 79Q389 40 358 13T266 -14Q226 -14 198 5T156 48V-207H68V523H156V182Q156 150 166 127T192 90T229 69T271 62Q342 62 372 108T402 234V523H490V141Q490 109 496 92T528 74Q539 74 549 75T559 77V-3Z"/>
<glyph unicode="π" horiz-adv-x="578" d="M545 12Q526 3 509 -2T471 -7Q439 -7 421 3T393 30T381 69T378 118V393H187V0H101V393H31V474H542V393H464V123Q464 101 469 84T502 67Q523 67 545 77V12Z"/>
<glyph unicode="–" horiz-adv-x="556" d="M556 240H0V313H556V240Z"/>
<glyph unicode="—" horiz-adv-x="1000" d="M1000 240H0V313H1000V240Z"/>
<glyph unicode="‘" horiz-adv-x="222" d="M169 470H65V568Q65 619 78 649T109 695T144 716T169 723V677Q153 676 143 667T127 643T119 611T116 576H169V470Z"/>
<glyph unicode="’" horiz-adv-x="222" d="M53 718H157V620Q157 569 144 539T113 493T78 472T53 465V511Q69 512 79 521T95 545T103 577T106 612H53V718Z"/>
<glyph unicode="‚" horiz-adv-x="222" d="M53 106H157V8Q157 -43 144 -73T113 -119T78 -140T53 -147V-101Q69 -100 79 -91T95 -67T103 -35T106 0H53V106Z"/>
<glyph unicode="“" horiz-adv-x="333" d="M307 470H203V568Q203 619 216 649T247 695T282 716T307 723V677Q291 676 281 667T265 643T257 611T254 576H307V470ZM142 470H38V568Q38 619 51 649T82 695T117 716T142 723V677Q126 676 116 667T100 643T92 611T89 576H142V470Z"/>
<glyph unicode="”" horiz-adv-x="333" d="M26 718H130V620Q130 569 117 539T86 493T51 472T26 465V511Q42 512 52 521T68 545T76 577T79 612H26V718ZM191 718H295V620Q295 569 282 539T251 493T216 472T191 465V511Q207 512 217 521T233 545T241 577T244 612H191V718Z"/>
<glyph unicode="„" horiz-adv-x="333" d="M26 106H130V8Q130 -43 117 -73T86 -119T51 -140T26 -147V-101Q42 -100 52 -91T68 -67T76 -35T79 0H26V106ZM191 106H295V8Q295 -43 282 -73T251 -119T216 -140T191 -147V-101Q207 -100 217 -91T233 -67T241 -35T244 0H191V106Z"/>
<glyph unicode="†" horiz-adv-x="556" d="M326 -159H232V431H43V507H232V718H326V507H514V431H326V-159Z"/>
<glyph unicode="‡" horiz-adv-x="556" d="M326 119H514V43H326V-159H232V43H43V119H232V439H43V515H232V718H326V515H514V439H326V119Z"/>
<glyph unicode="•" horiz-adv-x="350" d="M333 359Q333 326 321 298T287 248T237 215T175 202Q142 202 114 214T64 247T31 297T18 359Q18 392 30 420T63 470T113 504T175 517Q208 517 236 505T286 471T320 421T333 359Z"/>
<glyph unicode="…" horiz-adv-x="1000" d="M885 0H781V106H885V0ZM552 0H448V106H552V0ZM219 0H115V106H219V0Z"/>
<glyph unicode="‰" horiz-adv-x="1000" d="M147 -19H92L489 703H544L147 -19ZM745 149Q745 130 752 113T771 84T801 64T838 56Q857 56 874 63T903 83T923 113T931 149Q931 168 924 185T904 215T874 235T838 242Q798 242 772 215T745 149ZM682 149Q682 182 694 210T728 260T777 293T838 305Q870 305 898 293T948 259T981 210T994 149Q994 117 982 89T949 39T900 6T838 -7Q806 -7 778 5T728 38T695 87T682 149ZM382 149Q382 130 389 113T408 84T438 64T475 56Q494 56 511 63T540 83T560 113T568 149Q568 168 561 185T541 215T511 235T475 242Q435 242 409 215T382 149ZM319 149Q319 182 331 210T365 260T414 293T475 305Q507 305 535 293T585 259T618 210T631 149Q631 117 619 89T586 39T537 6T475 -7Q443 -7 415 5T365 38T332 87T319 149ZM70 539Q70 520 77 503T96 474T126 454T163 446Q182 446 199 453T228 473T248 503T256 539Q256 558 249 575T229 605T199 625T163 632Q123 632 97 605T70 539ZM7 539Q7 572 19 600T53 650T102 683T163 695Q195 695 223 683T273 649T306 600T319 539Q319 507 307 479T274 429T225 396T163 383Q131 383 103 395T53 428T20 477T7 539Z"/>
<glyph unicode="‹" horiz-adv-x="333" d="M245 108L88 231V323L245 446V358L140 277L245 196V108Z"/>
<glyph unicode="›" horiz-adv-x="333" d="M88 196L193 277L88 358V446L245 323V231L88 108V196Z"/>
<glyph unicode="⁄" horiz-adv-x="167" d="M-109 -19H-166L276 703H333L-109 -19Z"/>
<glyph unicode="€" horiz-adv-x="556" d="M509 534Q490 571 451 597T348 624Q309 624 282 608T235 567T207 509T194 444H479L455 372H191V301H430L406 229H197Q200 191 212 160T244 106T289 72T343 60Q371 60 398 67T447 86T486 109T509 131V32Q506 29 493 21T458 4T410 -12T350 -19Q244 -19 182 44T103 229H24L49 301H97V372H25L50 444H101Q113 567 176 635T354 703Q420 703 469 681T541 628L509 534Z"/>
<glyph unicode="ℓ" horiz-adv-x="500" d="M428 44Q363 -14 285 -14Q222 -14 185 20T147 120V211L89 154H87L54 202L146 287V540Q146 582 157 615T187 672T233 708T291 721Q346 721 379 685T413 586Q413 511 369 434T236 272V134Q236 110 242 95T259 70T281 57T306 53Q349 53 394 91H396L428 44ZM339 580Q339 615 325 637T290 660Q268 660 252 634T236 555V350Q287 409 313 468T339 580Z"/>
<glyph unicode="™" horiz-adv-x="1000" d="M373 658H246V306H173V658H46V718H373V658ZM675 415L791 718H903V306H830V641H828L699 306H649L520 641H518V306H445V718H557L675 415Z"/>
<glyph unicode="Ω" horiz-adv-x="752" d="M429 0V185Q471 193 503 213T556 262T589 328T600 406Q600 455 583 497T535 571T462 620T371 638Q321 638 279 620T206 571T158 497T140 405Q140 322 183 262T309 185V0H46V77H236V139Q190 152 155 178T95 241T59 320T46 410Q46 478 71 535T141 633T245 698T370 721Q437 721 495 699T598 635T667 537T693 412Q693 364 681 321T645 241T586 179T503 139V77H693V0H429Z"/>
<glyph unicode="℮" horiz-adv-x="500" d="M157 259V78Q216 19 302 19Q365 19 411 47T495 139L530 118Q507 82 484 57T433 15T373 -9T302 -17Q243 -17 196 4T114 63T62 151T44 259Q44 317 62 367T114 455T195 513T302 535Q360 535 407 515T489 458T542 371T561 259H157ZM448 295V440Q385 500 301 500Q217 500 157 440V295H448Z"/>
<glyph unicode="∂" horiz-adv-x="523" d="M481 360Q481 301 472 236T437 115T365 24T243 -12Q195 -12 157 6T91 54T50 126T35 213Q35 258 49 297T89 366T153 412T238 429Q284 429 323 410T394 359Q394 369 394 379T395 400Q395 439 387 483T360 564T309 626T228 651Q193 651 166 638T112 604Q100 618 89 631T65 659Q102 688 139 704T224 721Q299 721 348 688T427 603T469 486T481 360ZM391 271Q368 313 331 337T249 361Q216 361 192 349T151 315T126 267T118 209Q118 180 125 153T149 103T189 68T245 54Q285 54 312 76T357 130T382 201T391 271Z"/>
<glyph unicode="∆" horiz-adv-x="678" d="M11 0L287 712H382L667 0H11ZM333 613L134 83H540L333 613Z"/>
<glyph unicode="∏" horiz-adv-x="726" d="M570 -214V703H157V-214H66V786H660V-214H570Z"/>
<glyph unicode="∑" horiz-adv-x="626" d="M25 -214V-142L341 291L38 713V786H589V703H157L449 291L138 -132H601V-214H25Z"/>
<glyph unicode="−" horiz-adv-x="584" d="M39 216V289H545V216H39Z"/>
<glyph unicode="∕" horiz-adv-x="167" d="M-109 -19H-166L276 703H333L-109 -19Z"/>
<glyph unicode="∙" horiz-adv-x="278" d="M140 315Q163 315 182 297T202 252Q202 228 184 209T139 190Q113 190 95 208T77 252Q77 280 96 297T140 315Z"/>
<glyph unicode="√" horiz-adv-x="515" d="M315 -214H229L71 114L23 91L-10 161L114 219L258 -83L436 786H526L315 -214Z"/>
<glyph unicode="∞" horiz-adv-x="778" d="M681 260Q681 297 660 323T599 349Q579 349 559 340T521 318T486 288T456 259Q471 245 487 230T522 203T560 183T602 175Q640 175 660 199T681 260ZM361 259Q347 272 330 287T294 316T255 339T214 348Q177 348 157 322T136 260Q136 222 158 199T218 175Q237 175 257 183T296 203T331 231T361 259ZM754 263Q754 227 743 195T712 140T661 103T593 89Q563 89 538 98T490 121T447 155T408 196Q388 175 369 156T328 122T281 99T225 90Q187 90 157 103T105 139T73 193T61 262Q61 298 72 329T103 383T153 419T221 433Q252 433 278 424T326 398T369 362T408 319Q426 341 446 361T488 398T537 424T594 434Q631 434 660 421T711 384T743 330T754 263Z"/>
<glyph unicode="∫" horiz-adv-x="574" d="M442 723Q442 704 430 693T398 681Q380 681 371 689T357 708T348 727T335 736Q326 736 321 728T313 707T310 679T309 650Q309 624 310 601T311 564V-4Q311 -39 307 -76T288 -143T248 -193T179 -213Q166 -213 152 -210T125 -200T104 -182T96 -153Q96 -136 108 -124T138 -112Q156 -112 164 -120T178 -139T187 -157T199 -166Q208 -166 213 -156T221 -131T223 -101T224 -77Q224 -57 223 -40T222 -12Q222 -9 222 -6T223 0V499Q223 516 223 535T222 574Q222 611 226 648T243 716T283 766T354 786Q366 786 381 783T409 772T432 752T442 723Z"/>
<glyph unicode="≈" horiz-adv-x="666" d="M599 440Q596 410 587 383T562 333T521 298T462 285Q431 285 395 296T322 320T254 345T197 356Q166 356 149 333T126 282H67Q70 311 79 339T105 389T145 424T203 438Q235 438 269 427T339 403T407 379T471 368Q503 368 519 389T541 440H599ZM599 240Q596 210 587 183T562 133T521 98T462 85Q431 85 395 96T322 120T254 145T197 156Q166 156 149 133T126 82H67Q70 111 79 139T105 189T145 224T203 238Q235 238 269 227T339 203T407 179T471 168Q503 168 519 189T541 240H599Z"/>
<glyph unicode="≠" horiz-adv-x="666" d="M266 108L189 -41L116 -3L174 108H40V192H217L280 315H40V399H324L401 548L475 511L416 399H552V315H373L309 192H552V108H266Z"/>
<glyph unicode="≤" horiz-adv-x="666" d="M77 309V395L589 578V489L192 352L589 218V130L77 309ZM77 8V92H589V8H77Z"/>
<glyph unicode="≥" horiz-adv-x="666" d="M77 130V218L474 352L77 489V578L589 395V309L77 130ZM77 8V92H589V8H77Z"/>
<glyph unicode="◊" horiz-adv-x="593" d="M337 -35H255L82 356L255 747H337L511 356L337 -35ZM296 661L169 356L296 51L424 356L296 661Z"/>
<glyph unicode="" horiz-adv-x="333" d="M189 788H122L211 929H319L189 788Z"/>
<glyph unicode="" horiz-adv-x="333" d="M100 788H21L120 929H213L312 788H232L166 881L100 788Z"/>
<glyph unicode="" horiz-adv-x="333" d="M166 836L232 929H312L213 788H120L21 929H100L166 836Z"/>
<glyph unicode="" horiz-adv-x="333" d="M337 917Q332 872 306 840T237 808Q223 808 211 811T178 821L152 830Q126 839 113 842T91 845Q71 845 61 833T44 801H-4Q-1 823 6 842T25 876T56 899T100 908Q120 908 136 904T168 893L190 884Q204 878 217 875T237 871Q252 871 261 875T275 887T283 902T287 917H337Z"/>
<glyph unicode="" horiz-adv-x="333" d="M323 825H10V882H323V825Z"/>
<glyph unicode="" horiz-adv-x="333" d="M321 928Q313 854 270 823T162 792Q112 792 84 808T40 847T19 892T13 928H62Q65 919 70 906T86 880Q97 867 117 858T170 849Q200 849 218 857T248 877T264 902T273 928H321Z"/>
<glyph unicode="" horiz-adv-x="333" d="M115 839Q115 817 130 802T167 787Q189 787 204 802T219 839Q219 861 204 876T167 891Q145 891 130 876T115 839ZM167 931Q207 931 233 905T259 839Q259 799 233 773T167 747Q127 747 101 773T75 839Q75 879 101 905T167 931Z"/>
<glyph unicode="" horiz-adv-x="333" d="M278 788H211L300 929H409L278 788ZM98 788H31L120 929H229L98 788Z"/>
<glyph unicode="" horiz-adv-x="333" d="M212 799H121V901H212V799Z"/>
<glyph unicode="" horiz-adv-x="244" d="M110 756H182V688Q182 653 173 633T151 601T127 586T110 581V613Q132 615 139 637T147 683H110V756Z"/>
<glyph unicode="" horiz-adv-x="278" d="M114 -43H186V-111Q186 -146 177 -166T155 -198T131 -213T114 -218V-186Q136 -184 143 -162T151 -116H114V-43Z"/>
<glyph unicode="" horiz-adv-x="278" d="M178 603H106V671Q106 706 115 726T137 758T161 773T178 778V746Q156 744 149 722T141 676H178V603Z"/>
<glyph unicode="ﬁ" horiz-adv-x="500" d="M346 618V718H434V618H346ZM434 0H346V523H434V0ZM174 450V0H86V450H14V523H86V613Q86 673 121 700T222 728Q232 728 241 728T262 726V647Q254 648 244 648T226 649Q197 649 186 635T174 588V523H262V450H174Z"/>
<glyph unicode="ﬂ" horiz-adv-x="500" d="M432 0H344V718H432V0ZM174 450V0H86V450H14V523H86V613Q86 673 121 700T222 728Q232 728 241 728T262 726V647Q254 648 244 648T226 649Q197 649 186 635T174 588V523H262V450H174Z"/>

</font>
</defs>
</svg>
