<svg id="Group_11" data-name="Group 11" xmlns="http://www.w3.org/2000/svg" width="32.84" height="32.962" viewBox="0 0 32.84 32.962">
  <path id="Path_23" data-name="Path 23" d="M6.49,11.457a1.531,1.531,0,0,0,.384.836c.372,2.475,2.445,4.777,4.339,4.777,2.21,0,4.221-2.489,4.607-4.773a1.524,1.524,0,0,0,.388-.84c.125-.464.291-1.272,0-1.649-.014-.02-.034-.038-.044-.056.265-.974.6-2.989-.6-4.36a4.468,4.468,0,0,0-2.232-1.372l-.689-.239a10.855,10.855,0,0,0-1.886-.432.507.507,0,0,0-.155.012.786.786,0,0,1-.281.034,1.891,1.891,0,0,0-.753.127A5.4,5.4,0,0,0,6.6,6.5a6.675,6.675,0,0,0,.026,3.18.64.64,0,0,0-.141.133C6.2,10.187,6.362,10.993,6.49,11.457Z" transform="translate(6.211 3.318)" fill="#fff"/>
  <path id="Path_24" data-name="Path 24" d="M20.944,11.649l-.227-.074a17.094,17.094,0,0,0-1.85-.731,5.105,5.105,0,0,1-.518-.205c-.641-.317-1.179-.677-1.29-1.015,0,0,.374,3.6-2.778,3.685l-.436-.02C10.993,13.037,10.8,9.616,10.8,9.616c-.3.938-3.887,2.029-3.887,2.029A3.475,3.475,0,0,0,5.4,12.668c-1.577,2.342-1.762,7.544-1.762,7.544.02,1.191.534,1.314.534,1.314,3.626,1.617,9.316,1.9,9.316,1.9.307.008.593-.008.878-.026l.006.03s5.69-.289,9.316-1.905c0,0,.514-.125.536-1.31,0,0-.187-5.2-1.764-7.544A3.4,3.4,0,0,0,20.944,11.649Z" transform="translate(3.545 9.53)" fill="#fff"/>
  <path id="Path_25" data-name="Path 25" d="M10.316,9.8c.042-.052.082-.1.125-.155a.49.49,0,0,1-.01-.052C10.4,9.67,10.356,9.727,10.316,9.8Z" transform="translate(10.163 9.508)" fill="#fff"/>
  <path id="Path_26" data-name="Path 26" d="M7.255,9.633l-.01-.038-.008.042a.057.057,0,0,1,.012-.022A.127.127,0,0,1,7.255,9.633Z" transform="translate(7.112 9.509)" fill="#fff"/>
  <path id="Path_27" data-name="Path 27" d="M17.356,0A15.475,15.475,0,0,0,2.672,20.476l-1.4-.313a1.019,1.019,0,1,0-.446,1.989l4.643,1.041a1.076,1.076,0,0,0,.223.024,1.024,1.024,0,0,0,1-.794L7.683,18a1.019,1.019,0,0,0-1.989-.448l-.336,1.5a12.52,12.52,0,1,1,23.019,2.415L31,22.9A15.516,15.516,0,0,0,17.356,0Z" transform="translate(-0.03)" fill="#fff"/>
</svg>
