<svg xmlns="http://www.w3.org/2000/svg" width="20" height="20" viewBox="0 0 20 20">
  <g id="dashboard" transform="translate(-1 -1)">
    <path id="Path_73" data-name="Path 73" d="M19.065,11.816V5.49a2.257,2.257,0,1,0-2.581-2.232H1v12.9h9.694a5.158,5.158,0,1,0,8.371-4.345ZM18.742,1.645a1.613,1.613,0,1,1-1.613,1.613A1.615,1.615,0,0,1,18.742,1.645ZM1.645,3.9H16.579a2.257,2.257,0,0,0,.357.7L14.963,6.581a.934.934,0,0,0-.829,0l-.65-.65a.959.959,0,0,0,.1-.415.968.968,0,1,0-1.935,0,.952.952,0,0,0,.1.415L10.125,7.548a.959.959,0,0,0-.415-.1.968.968,0,1,0,.968.968A.952.952,0,0,0,10.58,8L12.2,6.387a.935.935,0,0,0,.829,0l.65.65a.959.959,0,0,0-.1.415.968.968,0,0,0,1.935,0,.952.952,0,0,0-.1-.415l1.973-1.973a2.244,2.244,0,0,0,1.027.426v5.885a5.13,5.13,0,0,0-6.452,1.06V11H10.032v3.871h.739a5.175,5.175,0,0,0-.078.645H1.645Zm12.9,3.226a.323.323,0,1,1-.323.323A.323.323,0,0,1,14.548,7.129ZM12.29,5.516a.323.323,0,1,1,.323.323A.323.323,0,0,1,12.29,5.516Zm-2.258,2.9A.323.323,0,1,1,9.71,8.1.323.323,0,0,1,10.032,8.419Zm5.806,10a2.581,2.581,0,1,1,2.581-2.581A2.584,2.584,0,0,1,15.839,18.419Zm-4.516-5.074a5.122,5.122,0,0,0-.384.88h-.262V11.645h.645Zm4.194-2.006v1.29A3.219,3.219,0,0,0,12.9,17.163l-1.119.646a4.5,4.5,0,0,1,3.735-6.47Zm.323,9.016A4.514,4.514,0,0,1,12.1,18.369l1.124-.649a3.215,3.215,0,0,0,5.229,0l1.124.649A4.514,4.514,0,0,1,15.839,20.355ZM19.9,17.809l-1.119-.646a3.219,3.219,0,0,0-2.616-4.533v-1.29a4.5,4.5,0,0,1,3.735,6.47Z"/>
    <path id="Path_74" data-name="Path 74" d="M42.935,41a1.935,1.935,0,1,0,1.935,1.935A1.937,1.937,0,0,0,42.935,41Zm0,3.226a1.29,1.29,0,1,1,1.29-1.29A1.292,1.292,0,0,1,42.935,44.226Z" transform="translate(-27.097 -27.097)"/>
    <path id="Path_75" data-name="Path 75" d="M5,12h.645v.645H5Z" transform="translate(-2.71 -7.452)"/>
    <path id="Path_76" data-name="Path 76" d="M9,12h4.516v.645H9Z" transform="translate(-5.419 -7.452)"/>
    <path id="Path_77" data-name="Path 77" d="M5,16h.645v.645H5Z" transform="translate(-2.71 -10.161)"/>
    <path id="Path_78" data-name="Path 78" d="M9,16h4.516v.645H9Z" transform="translate(-5.419 -10.161)"/>
    <path id="Path_79" data-name="Path 79" d="M5,20h.645v.645H5Z" transform="translate(-2.71 -12.871)"/>
    <path id="Path_80" data-name="Path 80" d="M9,20h4.516v.645H9Z" transform="translate(-5.419 -12.871)"/>
    <path id="Path_81" data-name="Path 81" d="M5,24h.645v.645H5Z" transform="translate(-2.71 -15.581)"/>
    <path id="Path_82" data-name="Path 82" d="M9,24h4.516v.645H9Z" transform="translate(-5.419 -15.581)"/>
    <path id="Path_83" data-name="Path 83" d="M5,37.226H6.935V34H5Zm.645-2.581H6.29v1.935H5.645Z" transform="translate(-2.71 -22.355)"/>
    <path id="Path_84" data-name="Path 84" d="M13,38.581h1.935V36H13Zm.645-1.935h.645v1.29h-.645Z" transform="translate(-8.129 -23.71)"/>
    <path id="Path_85" data-name="Path 85" d="M21,33.161h1.935V28H21Zm.645-4.516h.645v3.871h-.645Z" transform="translate(-13.548 -18.29)"/>
  </g>
</svg>
