<svg xmlns="http://www.w3.org/2000/svg" width="29.163" height="36.466" viewBox="0 0 29.163 36.466">
  <g id="downgrade" transform="translate(-1413.089 -603.88)">
    <g id="avatar_1_" data-name="avatar(1)" transform="translate(1413.089 608.169)">
      <g id="Group_12" data-name="Group 12" transform="translate(0)">
        <path id="Path_28" data-name="Path 28" d="M143.919,17.337h.213a6.148,6.148,0,0,0,4.7-2.032c2.565-2.892,2.139-7.849,2.092-8.322-.167-3.551-1.846-5.251-3.232-6.043A7.408,7.408,0,0,0,144.106,0h-.113a7.42,7.42,0,0,0-3.585.913c-1.4.793-3.105,2.492-3.272,6.07-.047.473-.473,5.43,2.092,8.322A6.124,6.124,0,0,0,143.919,17.337Zm-5-10.188c0-.02.007-.04.007-.053.22-4.777,3.611-5.291,5.064-5.291h.08c1.8.04,4.857.773,5.064,5.291a.13.13,0,0,0,.007.053c.007.047.473,4.578-1.646,6.963a4.367,4.367,0,0,1-3.432,1.426h-.067a4.353,4.353,0,0,1-3.425-1.426C138.455,11.74,138.909,7.19,138.915,7.15Z" transform="translate(-130.351)" fill="#fff"/>
        <path id="Path_29" data-name="Path 29" d="M63.44,267.53v-.02c0-.053-.007-.107-.007-.167-.04-1.319-.127-4.4-3.018-5.39l-.067-.02a19.225,19.225,0,0,1-5.53-2.519.9.9,0,0,0-1.033,1.473,20.752,20.752,0,0,0,6.083,2.779c1.553.553,1.726,2.212,1.772,3.731a1.338,1.338,0,0,0,.007.167,12.1,12.1,0,0,1-.14,2.059,24.522,24.522,0,0,1-11.747,2.732,24.663,24.663,0,0,1-11.754-2.739,11.45,11.45,0,0,1-.14-2.059c0-.053.007-.107.007-.167.047-1.519.22-3.178,1.772-3.731a20.947,20.947,0,0,0,6.083-2.779.9.9,0,0,0-1.033-1.473,19.014,19.014,0,0,1-5.53,2.519c-.027.007-.047.013-.067.02-2.892.993-2.978,4.078-3.018,5.39a1.338,1.338,0,0,1-.007.167v.02a10.218,10.218,0,0,0,.34,3.018.855.855,0,0,0,.346.42c.2.133,4.991,3.185,13.006,3.185s12.807-3.058,13.006-3.185a.892.892,0,0,0,.346-.42A10.72,10.72,0,0,0,63.44,267.53Z" transform="translate(-36.073 -241.97)" fill="#fff"/>
      </g>
    </g>
    <path id="Path_36" data-name="Path 36" d="M634.688,123.458h-1.414v-3.592a.566.566,0,0,0-.566-.566H629.88a.566.566,0,0,0-.566.566v3.592H627.9a.566.566,0,0,0-.42.945l3.394,3.761a.566.566,0,0,0,.84,0l3.394-3.761a.566.566,0,0,0-.42-.945Zm-3.394,3.483-2.121-2.352h.707a.565.565,0,0,0,.566-.566v-3.592h1.7v3.592a.566.566,0,0,0,.566.566h.708Zm0,0" transform="translate(806.998 484.579)" fill="#fff"/>
  </g>
</svg>
