<svg xmlns="http://www.w3.org/2000/svg" width="29" height="28.999" viewBox="0 0 29 28.999">
  <g id="employee" transform="translate(0)">
    <path id="Path_19" data-name="Path 19" d="M284.744,152a4.253,4.253,0,0,0-4.248,4.248V160.7a4.222,4.222,0,0,0-1.7-.354h0a4.222,4.222,0,0,0-3,1.244L272,165.387v7h8.5v-1.37l5.1-7.209V152Zm-.85,11.272-5.246,7.419H273.7v-4.6l3.3-3.3a2.552,2.552,0,0,1,2.9-.5l-3.8,3.8,1.2,1.2,4.9-4.9v-6.153a2.553,2.553,0,0,1,1.7-2.4Zm0,0" transform="translate(-256.594 -143.391)" fill="#fff"/>
    <path id="Path_20" data-name="Path 20" d="M9.8,161.595a4.222,4.222,0,0,0-3-1.244h0a4.222,4.222,0,0,0-1.7.354v-4.456A4.253,4.253,0,0,0,.849,152H0v11.812l5.1,7.209v1.37h8.5v-7Zm2.094,9.1H6.945L1.7,163.272v-9.427a2.553,2.553,0,0,1,1.7,2.4V162.4l4.9,4.9,1.2-1.2-3.8-3.8a2.536,2.536,0,0,1,1.1-.248h0a2.531,2.531,0,0,1,1.8.747l3.3,3.3Zm0,0" transform="translate(0 -143.391)" fill="#fff"/>
    <path id="Path_21" data-name="Path 21" d="M189.5,4.248A4.248,4.248,0,1,0,185.248,8.5,4.253,4.253,0,0,0,189.5,4.248ZM185.248,6.8A2.549,2.549,0,1,1,187.8,4.248,2.552,2.552,0,0,1,185.248,6.8Zm0,0" transform="translate(-170.748)" fill="#fff"/>
    <path id="Path_22" data-name="Path 22" d="M162.894,155.947a5.947,5.947,0,1,0-11.894,0V158.5h11.894Zm-1.7.85h-8.5v-.85a4.248,4.248,0,0,1,8.5,0Zm0,0" transform="translate(-142.448 -141.504)" fill="#fff"/>
  </g>
</svg>
