<svg xmlns="http://www.w3.org/2000/svg" width="38.001" height="38.001" viewBox="0 0 38.001 38.001">
  <path id="crosshair" d="M20.584,3.247V0H17.417V3.247a15.862,15.862,0,0,0-14.17,14.17H0v3.167H3.247a15.862,15.862,0,0,0,14.17,14.17V38h3.167V34.754a15.862,15.862,0,0,0,14.17-14.17H38V17.417H34.754a15.862,15.862,0,0,0-14.17-14.17Zm10.973,14.17h-3.2a9.508,9.508,0,0,0-7.773-7.773v-3.2A12.678,12.678,0,0,1,31.558,17.417Zm-6.432,3.167a6.345,6.345,0,0,1-4.542,4.542V22.167H17.417v2.958a6.345,6.345,0,0,1-4.542-4.542h2.958V17.417H12.876a6.345,6.345,0,0,1,4.542-4.542v2.958h3.167V12.875a6.345,6.345,0,0,1,4.542,4.542H22.168v3.167ZM17.417,6.444v3.2a9.508,9.508,0,0,0-7.773,7.773h-3.2A12.678,12.678,0,0,1,17.417,6.444ZM6.444,20.584h3.2a9.508,9.508,0,0,0,7.773,7.773v3.2A12.678,12.678,0,0,1,6.444,20.584Zm14.14,10.973v-3.2a9.508,9.508,0,0,0,7.773-7.773h3.2A12.678,12.678,0,0,1,20.584,31.557Zm0,0" transform="translate(0)" fill="#f3f3f3"/>
</svg>
