<svg id="high-five" xmlns="http://www.w3.org/2000/svg" width="5.449" height="5.45" viewBox="0 0 5.449 5.45">
  <g id="Group_73" data-name="Group 73" transform="translate(4.326 5.237)">
    <g id="Group_72" data-name="Group 72">
      <path id="Path_124" data-name="Path 124" d="M406.6,492.031a.107.107,0,1,0,.031.075A.107.107,0,0,0,406.6,492.031Z" transform="translate(-406.414 -492)"/>
    </g>
  </g>
  <g id="Group_75" data-name="Group 75" transform="translate(2)">
    <g id="Group_74" data-name="Group 74">
      <path id="Path_125" data-name="Path 125" d="M191.3,1.787a.416.416,0,0,0-.273-.176.421.421,0,0,0-.442.214V.7a.412.412,0,0,0-.617-.358.413.413,0,0,0-.814,0,.412.412,0,0,0-.615.318.412.412,0,0,0-.614.36.106.106,0,0,0,.213,0,.2.2,0,0,1,.4-.021v.284a.106.106,0,0,0,.213,0V.7a.2.2,0,0,1,.4-.021V1.51s0,.04,0,.04a.106.106,0,1,0,.213,0V.7c0-.01,0-.019,0-.028V.413a.2.2,0,1,1,.4,0V.674c0,.009,0,.019,0,.028V2.2a.106.106,0,1,0,.213,0V.681a.2.2,0,0,1,.4.021V2.277a.152.152,0,0,0,.3.036l.083-.338a.207.207,0,0,1,.4.089l-.16.813a1.389,1.389,0,0,1-.383.718l-.331.33a.106.106,0,0,0-.031.075v.95a.106.106,0,1,0,.213,0V4.045l.3-.3a1.6,1.6,0,0,0,.442-.827l.16-.813A.416.416,0,0,0,191.3,1.787Z" transform="translate(-187.927)"/>
    </g>
  </g>
  <g id="Group_77" data-name="Group 77" transform="translate(2.433 3.289)">
    <g id="Group_76" data-name="Group 76">
      <path id="Path_126" data-name="Path 126" d="M229.312,309a.106.106,0,0,0-.106.106v.312a1.3,1.3,0,0,1-.384.926l-.2.2a.106.106,0,0,0-.031.075v.433a.106.106,0,1,0,.213,0v-.389l.17-.17a1.511,1.511,0,0,0,.447-1.077v-.312A.107.107,0,0,0,229.312,309Z" transform="translate(-228.588 -309)"/>
    </g>
  </g>
  <g id="Group_79" data-name="Group 79" transform="translate(3.05 2.911)">
    <g id="Group_78" data-name="Group 78">
      <path id="Path_127" data-name="Path 127" d="M286.775,273.531a.106.106,0,1,0,.031.075A.107.107,0,0,0,286.775,273.531Z" transform="translate(-286.593 -273.5)"/>
    </g>
  </g>
  <g id="Group_81" data-name="Group 81" transform="translate(0 1.134)">
    <g id="Group_80" data-name="Group 80">
      <path id="Path_128" data-name="Path 128" d="M2.934,107.13a.392.392,0,0,0-.184.046.395.395,0,0,0-.581-.3.4.4,0,0,0-.776,0,.4.4,0,0,0-.584.347v1.036a.4.4,0,0,0-.412-.185.4.4,0,0,0-.324.473l.151.767a1.516,1.516,0,0,0,.418.783l.281.28v.389a.106.106,0,0,0,.213,0v-.433a.106.106,0,0,0-.031-.075l-.312-.311a1.3,1.3,0,0,1-.36-.673l-.151-.767a.189.189,0,0,1,.368-.081l.078.319a.149.149,0,0,0,.294-.035v-1.484a.182.182,0,0,1,.363-.019v.78a.106.106,0,0,0,.106.106h0a.106.106,0,0,0,.106-.106v-.761c0-.009,0-.018,0-.027v-.246a.182.182,0,1,1,.364,0v.246c0,.009,0,.018,0,.027v.761a.106.106,0,0,0,.106.106h0a.106.106,0,0,0,.106-.106v-.78a.182.182,0,0,1,.363.019v.761a.106.106,0,0,0,.106.106h0a.106.106,0,0,0,.106-.106v-.478a.182.182,0,0,1,.363.019v.5a.106.106,0,0,0,.213,0v-.5A.4.4,0,0,0,2.934,107.13Z" transform="translate(-0.067 -106.556)"/>
    </g>
  </g>
  <g id="Group_83" data-name="Group 83" transform="translate(0.841 0)">
    <g id="Group_82" data-name="Group 82">
      <path id="Path_129" data-name="Path 129" d="M79.819.619,79.258.057a.106.106,0,0,0-.151.151l.561.561a.106.106,0,1,0,.151-.151Z" transform="translate(-79.076 -0.026)"/>
    </g>
  </g>
  <g id="Group_85" data-name="Group 85" transform="translate(0.841 0.878)">
    <g id="Group_84" data-name="Group 84">
      <path id="Path_130" data-name="Path 130" d="M79.467,82.481h-.26a.106.106,0,0,0,0,.213h.26a.106.106,0,1,0,0-.213Z" transform="translate(-79.101 -82.481)"/>
    </g>
  </g>
  <g id="Group_87" data-name="Group 87" transform="translate(1.714)">
    <g id="Group_86" data-name="Group 86">
      <path id="Path_131" data-name="Path 131" d="M161.18,0a.106.106,0,0,0-.106.106V.375a.106.106,0,1,0,.213,0V.106A.106.106,0,0,0,161.18,0Z" transform="translate(-161.074 0)"/>
    </g>
  </g>
</svg>
