<svg id="job-seeker" xmlns="http://www.w3.org/2000/svg" width="4.466" height="5.314" viewBox="0 0 4.466 5.314">
  <path id="Path_114" data-name="Path 114" d="M90.362,50.334a.079.079,0,1,0-.144.063.966.966,0,1,0-.08-.332.079.079,0,1,0,.157-.009.808.808,0,1,1,.067.277Zm0,0" transform="translate(-89.201 -48.534)"/>
  <path id="Path_115" data-name="Path 115" d="M4.334,3.272,3.563,2.5a.127.127,0,0,0-.179,0l-.172.172L3,2.46A1.475,1.475,0,0,0,2.893.383.079.079,0,1,0,2.787.5a1.317,1.317,0,1,1-.24-.174A.079.079,0,0,0,2.624.188,1.475,1.475,0,1,0,1.412,2.867v.319a.079.079,0,0,0-.113,0l-.357.373A1.471,1.471,0,0,0,0,4.931a.383.383,0,0,0,.383.383H3.408a.383.383,0,0,0,.383-.383,1.469,1.469,0,0,0-.2-.745.079.079,0,1,0-.136.08,1.311,1.311,0,0,1,.181.665.226.226,0,0,1-.225.225H3.046V4.637a.079.079,0,1,0-.157,0v.519H2.306l-.147-.479a.191.191,0,0,0,.083-.158V4.474a.288.288,0,0,0,.249.077.2.2,0,0,0,.137-.114l.225-.708a1.306,1.306,0,0,1,.422.3.079.079,0,1,0,.114-.108,1.462,1.462,0,0,0-.542-.363l-.356-.371a.079.079,0,0,0-.113,0V2.871a1.467,1.467,0,0,0,.509-.3l.213.212-.173.173a.127.127,0,0,0,0,.179l.771.771a.449.449,0,0,0,.635-.635ZM1.57,2.912a1.5,1.5,0,0,0,.652,0v.534L1.9,4,1.57,3.448Zm.514,1.46V4.52a.035.035,0,0,1-.034.035H1.742a.035.035,0,0,1-.034-.035V4.372L1.9,4.25Zm-.743-1,.448.761-.4.26a.06.06,0,0,1-.077-.011l-.233-.735.264-.276Zm.144,1.786H.9V4.637a.079.079,0,1,0-.157,0v.519H.383a.226.226,0,0,1-.225-.225,1.313,1.313,0,0,1,.782-1.2l.224.707a.214.214,0,0,0,.31.086l.077-.05a.215.215,0,0,0,.078.2Zm.164,0,.132-.445H2l.137.445Zm.8-1.786.264.276-.233.735a.06.06,0,0,1-.077.011L2,4.131,2.45,3.37ZM3.811,3.8l-.75-.75.412-.412.75.75a.291.291,0,1,1-.412.412Zm0,0" transform="translate(0 0.001)"/>
</svg>
