<svg id="skills" xmlns="http://www.w3.org/2000/svg" width="6.269" height="5.608" viewBox="0 0 6.269 5.608">
  <g id="Group_57" data-name="Group 57" transform="translate(1.348 1.69)">
    <g id="Group_56" data-name="Group 56">
      <path id="Path_116" data-name="Path 116" d="M112.532,166.957a.123.123,0,0,0-.053,0h-.006a.852.852,0,0,0,.258-.611v-1.219a.122.122,0,0,0-.122-.122H111.7a.681.681,0,0,0-.68.68v.662a.852.852,0,0,0,.258.611h-.006a.123.123,0,0,0-.053,0,1.244,1.244,0,0,0-1.131,1.238v.6a.122.122,0,0,0,.122.122h3.328a.122.122,0,0,0,.122-.122v-.6A1.245,1.245,0,0,0,112.532,166.957Zm-1.266-1.105v-.172h0a.435.435,0,0,1,.435-.435h.785v.328a.3.3,0,0,1-.3.3h-.919Zm0,.491v-.224h.919a.542.542,0,0,0,.3-.09v.315a.61.61,0,0,1-1.22,0Zm.935.855-.325.325-.325-.325Zm1.216,1.477h-3.083v-.352h1a.122.122,0,1,0,0-.245h-.992a1,1,0,0,1,.87-.872l.577.577a.123.123,0,0,0,.173,0l.577-.577a1,1,0,0,1,.878.99Z" transform="translate(-110.09 -165)"/>
    </g>
  </g>
  <g id="Group_59" data-name="Group 59" transform="translate(3.012 4.766)">
    <g id="Group_58" data-name="Group 58">
      <path id="Path_117" data-name="Path 117" d="M246.209,416.256a.122.122,0,1,0,.036.087A.123.123,0,0,0,246.209,416.256Z" transform="translate(-246 -416.22)"/>
    </g>
  </g>
  <g id="Group_61" data-name="Group 61" transform="translate(2.671)">
    <g id="Group_60" data-name="Group 60">
      <path id="Path_118" data-name="Path 118" d="M218.592,27a.465.465,0,0,0-.122.914v.3a.122.122,0,1,0,.245,0v-.3a.465.465,0,0,0-.122-.914Zm0,.686a.22.22,0,1,1,.22-.22A.221.221,0,0,1,218.592,27.686Z" transform="translate(-218.127 -27)"/>
    </g>
  </g>
  <g id="Group_63" data-name="Group 63" transform="translate(4.614 0.819)">
    <g id="Group_62" data-name="Group 62">
      <path id="Path_119" data-name="Path 119" d="M377.8,94.007a.465.465,0,0,0-.733.56l-.211.211a.122.122,0,0,0,.173.173l.211-.211a.465.465,0,0,0,.56-.733Zm-.173.485a.22.22,0,1,1,.065-.156A.221.221,0,0,1,377.631,94.492Z" transform="translate(-376.824 -93.871)"/>
    </g>
  </g>
  <g id="Group_65" data-name="Group 65" transform="translate(4.933 2.949)">
    <g id="Group_64" data-name="Group 64">
      <path id="Path_120" data-name="Path 120" d="M403.792,267.833a.466.466,0,0,0-.449.343h-.3a.122.122,0,0,0,0,.245h.3a.465.465,0,1,0,.449-.588Zm0,.686a.22.22,0,1,1,.22-.22A.221.221,0,0,1,403.792,268.519Z" transform="translate(-402.922 -267.833)"/>
    </g>
  </g>
  <g id="Group_67" data-name="Group 67" transform="translate(4.469 3.292)">
    <g id="Group_66" data-name="Group 66">
      <path id="Path_121" data-name="Path 121" d="M365.209,295.866a.122.122,0,1,0,.036.087A.124.124,0,0,0,365.209,295.866Z" transform="translate(-365 -295.83)"/>
    </g>
  </g>
  <g id="Group_69" data-name="Group 69" transform="translate(0 2.946)">
    <g id="Group_68" data-name="Group 68">
      <path id="Path_122" data-name="Path 122" d="M1.213,267.922h-.3a.465.465,0,1,0,0,.245h.3a.122.122,0,1,0,0-.245Zm-.748.343a.22.22,0,1,1,.22-.22A.221.221,0,0,1,.465,268.265Z" transform="translate(0 -267.579)"/>
    </g>
  </g>
  <g id="Group_71" data-name="Group 71" transform="translate(0.531 0.807)">
    <g id="Group_70" data-name="Group 70">
      <path id="Path_123" data-name="Path 123" d="M44.479,93.814l-.211-.211a.465.465,0,1,0-.173.173l.211.211a.122.122,0,1,0,.173-.173Zm-.459-.286h0a.22.22,0,1,1,.065-.156A.221.221,0,0,1,44.02,93.528Z" transform="translate(-43.399 -92.907)"/>
    </g>
  </g>
</svg>
